<svg data-v-423bf9ae="" xmlns="http://www.w3.org/2000/svg" viewBox="0 0 402 90" class="iconLeft"><!----><!----><!----><g data-v-423bf9ae="" id="2ca83fae-a3c6-4257-a913-057660883fea" fill="white" transform="matrix(4.608294768854844,0,0,4.608294768854844,112.13245781580252,14.999998092651367)"><path d="M4.03 13.02C5.53 13.02 7.16 12.21 7.16 10.39C7.16 7.05 1.65 7.82 1.65 4.72C1.65 3.22 2.92 2.52 4.11 2.52C5.15 2.52 5.97 3.04 6.37 3.61L6.60 3.43C6.13 2.80 5.22 2.24 4.10 2.24C2.82 2.24 1.37 2.99 1.37 4.72C1.37 8.09 6.88 7.32 6.88 10.39C6.88 11.92 5.53 12.74 4.04 12.74C2.56 12.74 1.47 11.92 1.10 10.96L0.84 11.04C1.26 12.15 2.49 13.02 4.03 13.02ZM17.12 12.74C16.57 12.74 16.26 12.36 16.26 11.64L16.26 5.88L15.98 5.88L15.98 8.03C15.44 6.69 14.14 5.74 12.62 5.74C10.62 5.74 8.98 7.39 8.98 9.38C8.98 11.38 10.62 13.02 12.62 13.02C14.14 13.02 15.44 12.15 15.98 10.80L15.98 11.64C15.98 12.53 16.38 13.02 17.12 13.02C17.29 13.02 17.48 12.97 17.64 12.88L17.64 12.74ZM12.62 12.74C10.76 12.74 9.26 11.24 9.26 9.38C9.26 7.53 10.76 6.02 12.62 6.02C14.47 6.02 15.98 7.53 15.98 9.38C15.98 11.24 14.47 12.74 12.62 12.74ZM21.51 13.02C22.87 13.02 23.98 11.79 23.98 10.31L23.98 5.88L23.70 5.88L23.70 10.31C23.70 11.66 22.72 12.74 21.51 12.74C20.32 12.74 19.34 11.66 19.34 10.31L19.34 5.88L19.06 5.88L19.06 10.31C19.06 11.79 20.16 13.02 21.51 13.02ZM33.27 0L33.27 8.00C32.71 6.67 31.41 5.74 29.91 5.74C27.91 5.74 26.27 7.39 26.27 9.38C26.27 11.38 27.91 13.02 29.91 13.02C31.41 13.02 32.71 12.09 33.27 10.76L33.27 12.88L33.55 12.88L33.55 0ZM29.91 12.74C28.05 12.74 26.55 11.24 26.55 9.38C26.55 7.53 28.05 6.02 29.91 6.02C31.76 6.02 33.27 7.53 33.27 9.38C33.27 11.24 31.76 12.74 29.91 12.74ZM44.21 12.74C43.66 12.74 43.35 12.36 43.35 11.64L43.35 5.88L43.07 5.88L43.07 8.03C42.53 6.69 41.23 5.74 39.71 5.74C37.71 5.74 36.07 7.39 36.07 9.38C36.07 11.38 37.71 13.02 39.71 13.02C41.23 13.02 42.53 12.15 43.07 10.80L43.07 11.64C43.07 12.53 43.47 13.02 44.21 13.02C44.38 13.02 44.57 12.97 44.73 12.88L44.73 12.74ZM39.71 12.74C37.85 12.74 36.35 11.24 36.35 9.38C36.35 7.53 37.85 6.02 39.71 6.02C41.56 6.02 43.07 7.53 43.07 9.38C43.07 11.24 41.56 12.74 39.71 12.74ZM52.83 0L52.83 8.00C52.27 6.67 50.98 5.74 49.47 5.74C47.48 5.74 45.83 7.39 45.83 9.38C45.83 11.38 47.48 13.02 49.47 13.02C50.98 13.02 52.27 12.09 52.83 10.76L52.83 12.88L53.11 12.88L53.11 0ZM49.47 12.74C47.62 12.74 46.11 11.24 46.11 9.38C46.11 7.53 47.62 6.02 49.47 6.02C51.33 6.02 52.83 7.53 52.83 9.38C52.83 11.24 51.33 12.74 49.47 12.74ZM62.90 9.31L62.90 9.21C62.77 7.23 61.22 5.74 59.27 5.74C57.28 5.74 55.63 7.39 55.63 9.38C55.63 11.38 57.28 13.02 59.27 13.02C60.88 13.02 62.27 11.95 62.74 10.48L62.46 10.48C62.00 11.79 60.74 12.74 59.27 12.74C57.44 12.74 55.95 11.29 55.91 9.45L55.91 9.31ZM59.27 6.02C61.01 6.02 62.42 7.33 62.62 9.03L55.93 9.03C56.14 7.32 57.52 6.02 59.27 6.02Z"></path></g><!----><g data-v-423bf9ae="" id="194c6aa7-f3b4-45c4-95c7-c83bab411036" transform="matrix(1.5000041008107716,0,0,1.5000041008107716,0.9996352092952989,-3.000146127900763)" stroke="none" fill="white"><g data-name="13 Catamaran"><path d="M63.937 54.456a1 1 0 0 0-1.285-.59A1.845 1.845 0 0 1 62 54a2.728 2.728 0 0 1-2.106-1.447 1 1 0 0 0-.889-.55H59a1.007 1.007 0 0 0-.89.544A2.726 2.726 0 0 1 56 54a2.728 2.728 0 0 1-2.106-1.447 1 1 0 0 0-.889-.55H53a1.007 1.007 0 0 0-.89.544A2.726 2.726 0 0 1 50 54a2.728 2.728 0 0 1-2.106-1.447 1 1 0 0 0-.889-.55H47a1.007 1.007 0 0 0-.89.544A2.726 2.726 0 0 1 44 54a2.728 2.728 0 0 1-2.106-1.447 1 1 0 0 0-.889-.55H41a1.007 1.007 0 0 0-.89.544A2.726 2.726 0 0 1 38 54a2.728 2.728 0 0 1-2.106-1.447 1 1 0 0 0-.889-.55H35a1.007 1.007 0 0 0-.89.544A2.726 2.726 0 0 1 32 54a2.728 2.728 0 0 1-2.106-1.447 1 1 0 0 0-.889-.55H29a1.006 1.006 0 0 0-.89.544A2.726 2.726 0 0 1 26 54a2.728 2.728 0 0 1-2.106-1.447 1 1 0 0 0-.889-.55 1.03 1.03 0 0 0-.9.544A2.726 2.726 0 0 1 20 54a2.728 2.728 0 0 1-2.106-1.447 1 1 0 0 0-.889-.55 1.013 1.013 0 0 0-.9.544A2.726 2.726 0 0 1 14 54a2.728 2.728 0 0 1-2.106-1.447 1 1 0 0 0-1.786-.006A2.726 2.726 0 0 1 8 54a2.728 2.728 0 0 1-2.106-1.447A1 1 0 0 0 5.005 52H5a1.006 1.006 0 0 0-.89.544A2.726 2.726 0 0 1 2 54a1.837 1.837 0 0 1-.652-.134 1 1 0 1 0-.7 1.875A3.77 3.77 0 0 0 2 56a4.154 4.154 0 0 0 3-1.339A4.154 4.154 0 0 0 8 56a4.154 4.154 0 0 0 3-1.339 4.03 4.03 0 0 0 6 0 4.03 4.03 0 0 0 6 0 4.03 4.03 0 0 0 6 0 4.03 4.03 0 0 0 6 0 4.03 4.03 0 0 0 6 0 4.03 4.03 0 0 0 6 0 4.03 4.03 0 0 0 6 0 4.03 4.03 0 0 0 6 0A4.156 4.156 0 0 0 62 56a3.774 3.774 0 0 0 1.348-.259 1 1 0 0 0 .589-1.285zM56 60a2.728 2.728 0 0 1-2.106-1.447 1 1 0 0 0-.889-.55H53a1.007 1.007 0 0 0-.89.544A2.726 2.726 0 0 1 50 60a2.728 2.728 0 0 1-2.106-1.447 1 1 0 0 0-.889-.55H47a1.007 1.007 0 0 0-.89.544A2.726 2.726 0 0 1 44 60a2.728 2.728 0 0 1-2.106-1.447 1 1 0 0 0-.889-.55H41a1.007 1.007 0 0 0-.89.544A2.726 2.726 0 0 1 38 60a2.728 2.728 0 0 1-2.106-1.447 1 1 0 0 0-.889-.55H35a1.007 1.007 0 0 0-.89.544A2.726 2.726 0 0 1 32 60a2.728 2.728 0 0 1-2.106-1.447 1 1 0 0 0-.889-.55H29a1.006 1.006 0 0 0-.89.544A2.726 2.726 0 0 1 26 60a2.728 2.728 0 0 1-2.106-1.447 1 1 0 0 0-.889-.55H23a1.006 1.006 0 0 0-.89.544A2.726 2.726 0 0 1 20 60a2.728 2.728 0 0 1-2.106-1.447 1 1 0 0 0-.889-.55H17a1.006 1.006 0 0 0-.89.544A2.726 2.726 0 0 1 14 60a2.728 2.728 0 0 1-2.106-1.447 1 1 0 0 0-.889-.55H11a1.006 1.006 0 0 0-.89.544A2.726 2.726 0 0 1 8 60a1 1 0 0 0 0 2 4.154 4.154 0 0 0 3-1.339 4.03 4.03 0 0 0 6 0 4.03 4.03 0 0 0 6 0 4.03 4.03 0 0 0 6 0 4.03 4.03 0 0 0 6 0 4.03 4.03 0 0 0 6 0 4.03 4.03 0 0 0 6 0 4.03 4.03 0 0 0 6 0A4.156 4.156 0 0 0 56 62a1 1 0 0 0 0-2z"></path><path d="M7.725 51.961A.979.979 0 0 0 8 52a1 1 0 0 0 .961-.726C8.979 51.212 10.849 45 19 45h36v6a1 1 0 0 0 2 0v-7a1 1 0 0 0-1-1H19c-9.643 0-11.94 7.648-11.961 7.725a1 1 0 0 0 .686 1.236zM23 40v1a1 1 0 0 0 2 0v-1a1 1 0 0 1 1-1h18a1 1 0 0 1 1 1v1a1 1 0 0 0 2 0v-1a3 3 0 0 0-3-3H26a3 3 0 0 0-3 3zM19 32h15v2a1 1 0 0 0 2 0V3a1 1 0 0 0-1.414-.91c-.468.212-11.515 5.475-16.563 28.7A1 1 0 0 0 19 32zm1.25-2a75.782 75.782 0 0 1 1.05-4H34v4zm3.124-10H34v4H21.917a60.976 60.976 0 0 1 1.457-4zm2.9-6H34v4h-9.769a47.62 47.62 0 0 1 2.042-4zM34 4.81V12h-6.5A27.348 27.348 0 0 1 34 4.81z"></path><path d="M26 47a1 1 0 0 0 0 2h2a1 1 0 0 0 0-2zM34 47a1 1 0 0 0 0 2h2a1 1 0 0 0 0-2zM42 47a1 1 0 0 0 0 2h2a1 1 0 0 0 0-2z"></path></g></g><!----></svg>