<svg xmlns="http://www.w3.org/2000/svg" xml:space="preserve" width="232" height="232" x="0" y="0" version="1.1" viewBox="0 0 232 232"><path d="M0 0h232v232H0z" fill="#FFF"/><g fill="#00a3dd"><path d="M80 16h8v8h-8zm8 0h8v8h-8zm32 0h8v8h-8zm8 0h8v8h-8zm-48 8h8v8h-8zm32 0h8v8h-8zm8 0h8v8h-8zm24 0h8v8h-8zm-64 8h8v8h-8zm40 0h8v8h-8zm16 0h8v8h-8zm-40 8h8v8h-8zm8 0h8v8h-8zm8 0h8v8h-8zm8 0h8v8h-8zm-40 8h8v8h-8zm48 0h8v8h-8zm16 0h8v8h-8zm-56 8h8v8h-8zm16 0h8v8h-8zm8 0h8v8h-8zm-32 8h8v8h-8zm16 0h8v8h-8zm16 0h8v8h-8zm16 0h8v8h-8zm16 0h8v8h-8zm-56 8h8v8h-8zm16 0h8v8h-8zm8 0h8v8h-8zm8 0h8v8h-8zM16 80h8v8h-8zm24 0h8v8h-8zm8 0h8v8h-8zm8 0h8v8h-8zm8 0h8v8h-8zm8 0h8v8h-8zm8 0h8v8h-8zm48 0h8v8h-8zm8 0h8v8h-8zm8 0h8v8h-8zm8 0h8v8h-8zm24 0h8v8h-8zm16 0h8v8h-8zm8 0h8v8h-8zm8 0h8v8h-8zM16 88h8v8h-8zm8 0h8v8h-8zm8 0h8v8h-8zm16 0h8v8h-8zm40 0h8v8h-8zm16 0h8v8h-8zm8 0h8v8h-8zm16 0h8v8h-8zm8 0h8v8h-8zm32 0h8v8h-8zm8 0h8v8h-8zm8 0h8v8h-8zm8 0h8v8h-8zm8 0h8v8h-8zM24 96h8v8h-8zm8 0h8v8h-8zm16 0h8v8h-8zm16 0h8v8h-8zm16 0h8v8h-8zm56 0h8v8h-8zm8 0h8v8h-8zm8 0h8v8h-8zm16 0h8v8h-8zm8 0h8v8h-8zm8 0h8v8h-8zm24 0h8v8h-8zm-192 8h8v8h-8zm8 0h8v8h-8zm32 0h8v8h-8zm16 0h8v8h-8zm40 0h8v8h-8zm24 0h8v8h-8zm8 0h8v8h-8zm16 0h8v8h-8zm24 0h8v8h-8zm8 0h8v8h-8zm8 0h8v8h-8zm8 0h8v8h-8zm-184 8h8v8h-8zm8 0h8v8h-8zm8 0h8v8h-8zm8 0h8v8h-8zm16 0h8v8h-8zm8 0h8v8h-8zm8 0h8v8h-8zm16 0h8v8h-8zm8 0h8v8h-8zm8 0h8v8h-8zm24 0h8v8h-8zm24 0h8v8h-8zm8 0h8v8h-8zm40 0h8v8h-8zm-192 8h8v8h-8zm24 0h8v8h-8zm16 0h8v8h-8zm24 0h8v8h-8zm8 0h8v8h-8zm32 0h8v8h-8zm8 0h8v8h-8zm8 0h8v8h-8zm8 0h8v8h-8zm32 0h8v8h-8zm24 0h8v8h-8zm-184 8h8v8h-8zm8 0h8v8h-8zm8 0h8v8h-8zm16 0h8v8h-8zm16 0h8v8h-8zm40 0h8v8h-8zm8 0h8v8h-8zm8 0h8v8h-8zm8 0h8v8h-8zm8 0h8v8h-8zm16 0h8v8h-8zm24 0h8v8h-8zm8 0h8v8h-8zm8 0h8v8h-8zm8 0h8v8h-8zm8 0h8v8h-8zm-192 8h8v8h-8zm32 0h8v8h-8zm32 0h8v8h-8zm8 0h8v8h-8zm8 0h8v8h-8zm8 0h8v8h-8zm32 0h8v8h-8zm24 0h8v8h-8zm16 0h8v8h-8zm16 0h8v8h-8zm16 0h8v8h-8zm-192 8h8v8h-8zm16 0h8v8h-8zm16 0h8v8h-8zm16 0h8v8h-8zm8 0h8v8h-8zm8 0h8v8h-8zm8 0h8v8h-8zm8 0h8v8h-8zm16 0h8v8h-8zm8 0h8v8h-8zm8 0h8v8h-8zm8 0h8v8h-8zm8 0h8v8h-8zm8 0h8v8h-8zm8 0h8v8h-8zm8 0h8v8h-8zm8 0h8v8h-8zm16 0h8v8h-8zm8 0h8v8h-8zm-120 8h8v8h-8zm16 0h8v8h-8zm8 0h8v8h-8zm8 0h8v8h-8zm8 0h8v8h-8zm24 0h8v8h-8zm32 0h8v8h-8zm24 0h8v8h-8zm-120 8h8v8h-8zm16 0h8v8h-8zm8 0h8v8h-8zm40 0h8v8h-8zm16 0h8v8h-8zm16 0h8v8h-8zm8 0h8v8h-8zm24 0h8v8h-8zm-128 8h8v8h-8zm16 0h8v8h-8zm24 0h8v8h-8zm8 0h8v8h-8zm8 0h8v8h-8zm8 0h8v8h-8zm32 0h8v8h-8zm24 0h8v8h-8zm8 0h8v8h-8zm-128 8h8v8h-8zm24 0h8v8h-8zm8 0h8v8h-8zm16 0h8v8h-8zm8 0h8v8h-8zm8 0h8v8h-8zm8 0h8v8h-8zm8 0h8v8h-8zm8 0h8v8h-8zm8 0h8v8h-8zm8 0h8v8h-8zm-104 8h8v8h-8zm24 0h8v8h-8zm24 0h8v8h-8zm24 0h8v8h-8zm8 0h8v8h-8zm8 0h8v8h-8zm16 0h8v8h-8zm16 0h8v8h-8zm8 0h8v8h-8zm-112 8h8v8h-8zm8 0h8v8h-8zm16 0h8v8h-8zm8 0h8v8h-8zm16 0h8v8h-8zm8 0h8v8h-8zm16 0h8v8h-8zm8 0h8v8h-8zm16 0h8v8h-8zm8 0h8v8h-8zm8 0h8v8h-8zm-80 8h8v8h-8zm24 0h8v8h-8zm16 0h8v8h-8zm8 0h8v8h-8zm16 0h8v8h-8zm8 0h8v8h-8zm8 0h8v8h-8zm-128 8h8v8h-8zm32 0h8v8h-8zm32 0h8v8h-8zm16 0h8v8h-8zm24 0h8v8h-8zm24 0h8v8h-8z"/><path d="M24.4 24.4h39.2v39.2H24.4z" fill="none"/><path d="M63.6 16H16v56h56V16h-8.4zm0 47.6H24.4V24.4h39.2v39.2z"/><path d="M168.4 24.4h39.2v39.2h-39.2z" fill="none"/><path d="M207.6 16H160v56h56V16h-8.4zm0 47.6h-39.2V24.4h39.2v39.2z"/><path d="M24.4 168.4h39.2v39.2H24.4z" fill="none"/><path d="M63.6 160H16v56h56v-56h-8.4zm0 47.6H24.4v-39.2h39.2v39.2z"/><path d="M32 32h24v24H32zm144 0h24v24h-24zM32 176h24v24H32z"/></g></svg>