<?xml version="1.0" encoding="utf-8"?>
<!-- Generator: Adobe Illustrator 27.0.1, SVG Export Plug-In . SVG Version: 6.00 Build 0)  -->
<svg version="1.1" id="Layer_1" xmlns="http://www.w3.org/2000/svg" xmlns:xlink="http://www.w3.org/1999/xlink" x="0px" y="0px"
	 viewBox="0 0 500 500" style="enable-background:new 0 0 500 500;" xml:space="preserve">
<path d="M267.9,8.7c4.5,0,7.8,2.8,8.5,6.6c1.3,6.9,6.6,11.9,13,17.4c54.2,46,88.9,100.9,103.9,164.4c4.3,18.7,6.5,37.7,9.4,56.5
	c1.6,9.5,2.4,14.7,3.6,24.2c0.6,4.1,1.2,9.8-10,10.3l-110.7,0.5c-4.8,0-8.5,3.2-8.5,7.2v8.4c0,2.9,2.3,5.3,5.2,5.3h1.4
	c21,0,41.9,0,62.7,0c3.1,0,5.9,1.3,7.5,3.5c9.8,14.2,20.1,28.1,29.9,42.2c1.6,2.2,4.3,3.5,7.3,3.5c29.5,0,43.4,0,72.9,0
	c21.2,0,23.8,12.1,21.8,26.5c-4.3,36.1-5.5,45.4-10,81.5c-1.4,10.9-9.7,14.5-17.2,14.7H346.7c-4.1,0-7.5-2.4-8.4-5.7
	c-2.9-11.2-6.1-22.5-8.8-33.7c-0.9-3.3-4.3-5.7-8.3-5.7c-40.9,0-81.8,0-122.7,0c-4.1,0-7.5,2.4-8.3,5.7c-2.8,11.2-5.9,22.5-8.8,33.7
	c-0.9,3.3-4.3,5.7-8.4,5.7H64.8c-20.4,0-19.1-9.8-20.8-17.7c-2-15-2.4-18.6-4.4-33.6c-2.8-22.1-2.2-21-5.7-43
	c-2.9-13.4-2.9-28.5,21.7-28.5c30.8,0,42.7,0.1,73.4,0.2c3.3,0,6.3-1.7,7.8-4.1c2.4-3.9,5.2-7.7,8.1-11.7c1.4-1.9,0.1-4.6-2.2-4.6
	l0,0c-7.8,0-15.3,0-23.1,0c-7.1,0-7.4-0.4-6.5-6.4c1.4-9.8,2.6-19.5,4.2-29.3c3-19.1,5.2-38.5,9.8-57.4
	c15.9-66.2,53.3-122.7,111.1-169.6c3.5-2.8,5.5-6.7,5.3-10.9c-0.6-16.3-0.1-32.5,0-48.8c0-4,3.8-7.2,8.5-7.2h15.7V8.7H267.9z
	 M68.3,387.5c1.3,9.9,2.3,18.9,3.3,27.9c1.4,11.8,2.8,23.5,4.5,35.3c0,1.1,1.7,2.7,2.6,2.7c1.6,0.1,3.2,0.1,4.8,0.1
	c7.1,0,12.9-5.8,12.9-13.1v-1.5c0-4.5,4.7-7.9,10.2-7.1c4.7,0,9.3,0,14-0.1c5.3-0.6,9.8,2.7,9.8,7c0,3.4,0,6.7,0,10.2
	c-0.1,3.3,1,4.8,5.2,4.6c4.2-0.2,8.4-0.2,12.7,0c3.3,0.1,4.8-0.8,5.5-3.7c2.9-12.5,6.5-24.9,9.5-37.4c1.1-4.4,192.2-4.6,193.3,0.4
	c2.1,9.1,4.5,18.1,6.9,27.1c1.3,4.5,1.1,10.6,4.5,12.8c3.8,2.4,10.8,0.7,16.5,1.1c4.1,0.2,4.9-1.4,4.9-4.4c0-3.4,0-6.9,0-10.3
	c0-4,3.9-7.2,8.7-7.2c6.2,0,12.4,0.1,18.5,0c5.2-0.2,7.2,1.2,6.9,5.7c-0.2,2.7-0.2,5.4-0.2,8.2c0.1,4.4,3.6,8,8,8h4.2
	c4.5,0,8.3-2.7,8.7-6.5c1.4-12.8,3.2-25.5,4.8-38.3c0.8-6,0.3-3.1,1.1-9.4c0-0.1,0-0.3,0-0.4c0-9.8-3.7-11.1-13.9-11.3l8.2,0
	c-24,0-48.2-0.1-72.2,0.1c-3,0-5.9-1.3-7.5-3.5c-9.7-14.2-19.8-28.3-29.9-42.1c-1.6-2.1-4.2-3.4-7.2-3.4c-14-0.2-28.3,0-42.3-0.1
	c-4.8,0-8.5,3.2-8.5,7.2c0,11.8,0,23.6,0,35.3c0,4.4-2.6,6.6-7.6,6.6c-64.3,0-128.6,0-192.9,0c-2.4,0-4.6,0-7.8,0L68.3,387.5z
	 M359.8,260.2c5.1,0,9.1-3.7,8.5-7.9c-4.1-33.6-10.1-66.4-24.7-97.8c-12.8-27.4-29.5-52.6-50.9-75.8c-5.1-5.4-15.5-2.5-15.5,4.4
	v160.7c0,4,0,16.4,16.5,16.4l66-0.2L359.8,260.2L359.8,260.2z M160.4,309.1h73.8c4.8,0,8.5-3.2,8.5-7.2V132.5
	c0-6.9-10.4-9.8-15.5-4.4c-47.2,50.8-69.9,109.1-75.5,173.3C151.3,305.5,155.4,309.1,160.4,309.1L160.4,309.1z M243.3,358.5
	c0.4-4.4-0.3-11.9,0-16.4c0.1-3.2-1.6-3.9-4.9-3.9c-15.6,0-31.4,0-47,0.1c-1.7,0-4.2,0.8-5.1,1.9c-4.3,5.7-8.3,11.5-12.7,17.5"/>
</svg>
