<?xml version="1.0" encoding="utf-8"?>
<svg viewBox="0 0 500 500" xmlns="http://www.w3.org/2000/svg">
  <path d="M 255.209 12.926 C 259.794 12.926 263.234 15.764 263.948 19.545 C 265.239 26.402 270.682 31.485 277.13 36.921 C 332.292 82.905 367.682 137.871 383.013 201.351 C 387.455 220.026 389.606 239.058 392.613 257.854 C 394.191 267.31 394.996 272.595 396.274 282.053 C 396.83 286.167 397.463 291.851 386.071 292.377 L 273.264 292.843 C 268.39 292.843 264.522 296.035 264.522 300.055 L 264.522 313.53 C 266.958 313.53 269.109 313.769 271.256 313.769 C 292.608 313.769 313.954 313.769 335.158 313.769 C 338.313 313.769 341.178 315.067 342.752 317.313 C 352.781 331.498 363.242 345.448 373.273 359.514 C 374.847 361.759 377.714 363.059 380.721 363.059 C 410.81 363.059 440.754 363.059 470.845 363.059 C 476.003 363.059 480.014 366.724 479.586 370.982 C 475.142 407.033 470.7 443.205 466.116 479.258 C 465.687 482.922 461.962 485.761 457.376 485.761 L 335.587 485.761 C 331.434 485.761 327.996 483.396 326.993 480.087 C 323.984 468.857 320.831 457.625 317.965 446.397 C 317.107 443.086 313.524 440.722 309.513 440.722 C 267.819 440.722 226.123 440.722 184.429 440.722 C 180.275 440.722 176.834 443.086 175.976 446.397 C 173.11 457.625 169.957 468.857 166.947 480.087 C 166.09 483.396 162.508 485.761 158.354 485.761 L 37.281 485.761 C 32.839 485.761 29.114 483.042 28.541 479.378 C 26.538 464.364 24.531 449.47 22.526 434.457 C 19.658 412.352 17.785 397.756 14.214 375.737 C 13.214 369.569 13.864 363.074 25.205 363.059 C 56.585 363.019 82.271 363.059 113.65 363.179 C 117.088 363.179 120.097 361.522 121.53 359.04 C 124.682 353.841 128.692 348.874 132.851 343.2 C 130.558 342.962 128.98 342.727 127.547 342.727 C 119.668 342.727 111.928 342.727 104.05 342.727 C 96.886 342.727 96.599 342.374 97.46 336.344 C 98.892 326.534 100.18 316.842 101.758 307.028 C 104.908 287.879 107.058 268.492 111.788 249.579 C 127.977 183.382 166.09 126.879 224.978 79.95 C 228.56 77.115 230.566 73.213 230.423 69.076 C 229.85 52.762 230.277 36.568 230.423 20.256 C 230.423 16.235 234.291 13.045 239.162 13.045 L 255.209 13.045 L 255.209 12.926 Z M 51.896 391.666 C 53.186 401.595 54.187 410.579 55.333 419.565 C 56.767 431.384 58.201 443.086 59.919 454.906 C 59.919 455.972 61.639 457.625 62.499 457.625 C 68.373 457.862 74.246 457.746 80.554 457.746 C 80.554 452.542 80.554 447.816 80.554 443.205 C 80.554 439.186 84.42 435.994 89.29 435.994 C 95.023 435.994 100.755 435.994 106.487 435.994 C 111.357 435.994 115.227 439.069 115.227 443.086 C 115.227 446.515 115.227 449.823 115.227 453.253 C 115.082 456.562 116.229 458.1 120.527 457.862 C 124.824 457.625 129.125 457.625 133.422 457.862 C 136.861 457.98 138.294 457.035 139.012 454.2 C 142.018 441.668 145.601 429.258 148.752 416.845 C 149.901 412.47 344.614 412.234 345.762 417.199 C 347.91 426.301 350.348 435.284 352.781 444.269 C 354.071 448.761 353.929 454.906 357.367 457.035 C 361.238 459.4 368.4 457.746 374.131 458.1 C 378.285 458.336 379.147 456.681 379.147 453.725 C 379.147 450.297 379.147 446.87 379.147 443.442 C 379.147 439.423 383.157 436.231 388.029 436.231 C 394.333 436.231 400.638 436.349 406.942 436.231 C 412.242 435.994 414.249 437.412 413.962 441.904 C 413.532 447.225 413.962 452.542 413.962 458.1 C 418.548 458.1 422.561 458.1 426.285 458.1 C 430.868 458.1 434.737 455.381 435.168 451.598 C 436.601 438.831 438.462 426.065 440.041 413.298 C 440.899 406.441 441.616 399.587 442.474 392.138 C 439.753 392.138 437.605 392.138 435.312 392.138 C 410.81 392.138 386.166 392.019 361.665 392.257 C 358.515 392.257 355.647 390.958 354.071 388.71 C 344.186 374.526 333.87 360.459 323.551 346.629 C 321.977 344.501 319.256 343.2 316.245 343.2 C 301.919 342.962 287.445 343.2 273.119 343.084 C 268.247 343.084 264.38 346.274 264.38 350.294 C 264.38 362.114 264.38 373.935 264.38 385.637 C 264.38 390.051 261.8 392.257 256.642 392.257 C 191.164 392.257 125.541 392.257 60.062 392.257 C 57.628 392.257 55.333 392.257 52.038 392.257 L 51.896 391.666 Z M 348.914 264.473 C 354.071 264.473 358.225 260.81 357.653 256.552 C 353.497 222.982 347.338 190.121 332.438 158.796 C 319.399 131.37 302.347 106.192 280.571 83.023 C 275.41 77.586 264.809 80.542 264.809 87.398 L 264.809 257.146 C 264.809 261.164 268.678 264.354 273.549 264.354 L 348.914 264.354 L 348.914 264.473 Z M 145.601 313.412 L 220.822 313.412 C 225.692 313.412 229.562 310.221 229.562 306.2 L 229.562 136.69 C 229.562 129.834 218.961 126.879 213.803 132.318 C 165.66 183.147 142.594 241.423 136.861 305.61 C 136.431 309.747 140.586 313.412 145.743 313.412 L 145.601 313.412 Z M 230.133 362.822 C 230.566 358.45 229.85 350.885 230.133 346.392 C 230.277 343.2 228.56 342.492 225.122 342.492 C 209.216 342.492 193.169 342.492 177.267 342.609 C 175.547 342.609 172.968 343.437 172.107 344.501 C 167.664 350.175 163.653 355.968 159.211 361.996" style="stroke-width: 14px; vector-effect: non-scaling-stroke; stroke-linejoin: round;"/>
</svg>