<?xml version="1.0" encoding="utf-8"?>
<svg viewBox="0 0 500 500" xmlns="http://www.w3.org/2000/svg">
  <path d="M 402.895 105.195 C 404.841 100.811 404.438 95.742 401.813 91.722 C 399.198 87.702 394.728 85.282 389.935 85.282 L 256.372 85.282 C 249.601 47.469 216.533 18.649 176.803 18.649 C 132.19 18.649 95.887 54.953 95.887 99.565 C 95.887 144.178 132.191 180.482 176.803 180.482 C 183.462 180.482 189.963 179.595 196.298 178.019 L 269.295 342.865 L 269.295 453.005 L 213.449 453.005 L 213.449 481.35 L 353.487 481.35 L 353.487 453.005 L 297.645 453.005 L 297.645 342.865 L 402.895 105.195 Z M 164.052 105.195 L 184.563 151.502 C 182.009 151.878 179.437 152.134 176.808 152.134 C 147.818 152.134 124.237 128.553 124.237 99.563 C 124.237 70.572 147.818 46.992 176.808 46.992 C 200.84 46.992 221.108 63.221 227.349 85.28 L 177.012 85.288 C 172.22 85.288 167.749 87.713 165.13 91.728 C 162.515 95.743 162.112 100.812 164.052 105.196 L 164.052 105.195 Z M 276.883 153.529 C 270.841 156.428 266.467 158.53 256.358 158.53 C 246.268 158.53 241.903 156.438 235.862 153.533 C 230.281 150.857 223.618 147.691 213.287 146.377 L 198.789 113.627 L 368.166 113.627 L 349.193 156.466 C 346.915 155.659 344.809 154.658 342.454 153.529 C 335.232 150.06 326.22 145.741 309.672 145.741 C 293.125 145.741 284.118 150.06 276.885 153.529 L 276.883 153.529 Z" style=""/>
</svg>