<?xml version="1.0" encoding="utf-8"?>
<svg viewBox="0 0 500 500" xmlns="http://www.w3.org/2000/svg">
  <path d="M 489.414 200.671 C 483.974 195.227 476.741 192.229 469.045 192.229 C 453.18 192.229 440.27 205.139 440.27 221.008 L 440.27 250.425 L 429.4 250.425 L 429.4 178.696 C 429.4 154.748 409.92 135.268 385.972 135.268 L 316.449 135.271 L 316.449 111.37 L 351.019 111.37 C 366.883 111.37 379.794 98.461 379.794 82.591 C 379.794 66.719 366.884 53.813 351.019 53.813 L 214.065 53.809 C 198.193 53.809 185.286 66.718 185.286 82.588 C 185.286 98.46 198.196 111.367 214.065 111.367 L 248.618 111.367 L 248.618 135.268 L 203.53 135.268 C 202.783 135.236 200.984 135.17 198.61 135.17 C 190.085 135.17 183.147 135.953 177.979 137.505 C 167.4 140.682 158.535 150.717 155.982 153.84 L 121.649 189.199 L 116.262 189.199 C 92.321 189.199 72.845 208.679 72.845 232.627 L 72.845 250.432 L 57.554 250.432 L 57.554 221.016 C 57.554 205.151 44.644 192.237 28.779 192.237 C 12.907 192.237 0 205.146 0 221.016 L 0 357.969 C 0 373.841 12.909 386.758 28.779 386.758 C 44.643 386.758 57.554 373.845 57.554 357.969 L 57.554 328.549 L 72.845 328.549 L 72.845 347.02 C 72.845 370.961 92.317 390.437 116.262 390.437 L 116.76 390.437 L 155.741 422.996 C 156.821 423.9 166.647 431.975 179.194 436.157 C 190.229 439.847 207.844 440.607 210.304 440.69 L 324.674 440.69 C 326.12 440.69 333.675 440.55 340.277 437.753 C 347.237 434.816 351.577 428.963 353.19 426.45 L 381.075 390.446 L 385.981 390.446 C 409.922 390.446 429.398 370.966 429.398 347.025 L 429.398 328.553 L 440.275 328.553 L 440.275 357.974 C 440.275 373.846 453.185 386.759 469.05 386.759 C 484.922 386.759 497.829 373.846 497.829 357.974 L 497.829 221.02 C 497.833 213.334 494.845 206.113 489.413 200.669 L 489.414 200.671 Z M 472.118 357.968 C 472.118 359.665 470.734 361.049 469.045 361.049 C 467.353 361.049 465.976 359.665 465.976 357.968 L 465.976 315.695 C 465.976 308.595 460.223 302.842 453.123 302.842 L 416.541 302.842 C 409.44 302.842 403.689 308.595 403.689 315.695 L 403.689 347.02 C 403.689 356.788 395.741 364.735 385.977 364.735 L 374.77 364.735 C 370.796 364.735 367.042 366.575 364.608 369.716 L 332.451 411.237 C 332.092 411.703 331.755 412.198 331.464 412.71 C 331.44 412.757 330.612 413.847 330.277 414.073 C 328.936 414.64 326.143 414.962 324.626 414.984 L 210.78 414.995 C 206.738 414.841 193.753 413.926 187.326 411.778 C 179.312 409.107 172.308 403.351 172.243 403.296 L 129.658 367.726 C 127.348 365.793 124.43 364.736 121.417 364.736 L 116.256 364.736 C 106.495 364.736 98.544 356.792 98.544 347.024 L 98.544 315.7 C 98.544 308.599 92.793 302.847 85.692 302.847 L 44.696 302.847 C 37.596 302.847 31.843 308.599 31.843 315.7 L 31.843 357.973 C 31.843 359.676 30.466 361.056 28.774 361.056 C 27.081 361.056 25.701 359.672 25.701 357.973 L 25.701 221.01 C 25.701 219.314 27.085 217.936 28.774 217.936 C 30.466 217.936 31.843 219.314 31.843 221.01 L 31.843 263.279 C 31.843 270.38 37.596 276.132 44.696 276.132 L 85.692 276.132 C 92.793 276.132 98.544 270.38 98.544 263.279 L 98.544 232.621 C 98.544 222.853 106.492 214.899 116.256 214.899 L 127.079 214.899 C 130.555 214.899 133.883 213.496 136.303 210.997 L 174.824 171.316 C 175.129 171.008 175.406 170.685 175.678 170.344 C 177.93 167.5 182.825 162.878 185.357 162.118 C 187.964 161.336 192.92 160.87 198.601 160.87 C 200.856 160.87 202.42 160.942 202.549 160.953 C 202.775 160.963 202.997 160.966 203.223 160.966 L 261.462 160.966 C 268.563 160.966 274.314 155.215 274.314 148.114 L 274.311 98.519 C 274.311 91.418 268.559 85.666 261.458 85.666 L 214.053 85.666 C 212.361 85.666 210.981 84.289 210.981 82.592 C 210.981 80.897 212.364 79.52 214.053 79.52 L 351.007 79.52 C 352.7 79.52 354.077 80.897 354.077 82.592 C 354.077 84.289 352.7 85.666 351.007 85.666 L 303.584 85.666 C 296.484 85.666 290.732 91.418 290.732 98.519 L 290.732 148.125 C 290.732 155.226 296.484 160.977 303.584 160.977 L 385.979 160.977 C 395.748 160.977 403.701 168.924 403.701 178.7 L 403.701 263.286 C 403.701 270.387 409.454 276.138 416.554 276.138 L 453.129 276.138 C 460.23 276.138 465.981 270.387 465.981 263.286 L 465.981 221.016 C 465.981 219.32 467.358 217.943 469.051 217.943 C 470.109 217.943 470.827 218.431 471.235 218.843 C 471.64 219.248 472.125 219.955 472.125 221.013 L 472.118 357.968 Z M 366.305 194.401 L 194.08 194.401 C 186.98 194.401 181.228 200.153 181.228 207.253 C 181.228 214.353 186.98 220.106 194.08 220.106 L 366.305 220.106 C 373.405 220.106 379.158 214.353 379.158 207.253 C 379.158 200.153 373.405 194.401 366.305 194.401 Z" style=""/>
</svg>