<?xml version="1.0" encoding="utf-8"?>
<!-- Generator: Adobe Illustrator 27.0.1, SVG Export Plug-In . SVG Version: 6.00 Build 0)  -->
<svg version="1.1" id="Layer_1" xmlns="http://www.w3.org/2000/svg" xmlns:xlink="http://www.w3.org/1999/xlink" x="0px" y="0px"
	 viewBox="0 0 500 500" style="enable-background:new 0 0 500 500;" xml:space="preserve">
<style type="text/css">
	.st0{fill:#FFFFFF;}
</style>
<path d="M480.6,174.2c-9.7,0-17.5,7.8-17.5,17.5v57.6c0,0.1,0,0.1-0.1,0.1h-28.7c-0.1,0-0.1,0-0.1-0.1V145.2
	c0-18.6-15-33.6-33.6-33.6l-96.1,0c-0.1,0-0.1,0-0.1-0.1V85.4c0-0.1,0-0.1,0.1-0.1h57.1c10.5,0,18.9-8.6,18-19
	c-0.7-9-8.3-16-17.4-16l-149.9,0c-10.5,0-18.9,8.6-18,19c0.8,9,8.3,16,17.4,16h57.7c0.1,0,0.1,0,0.1,0.1v26.1c0,0.1,0,0.1-0.1,0.1
	h-69.5c0,0-14.9-0.8-23.7,1.9c-8.8,2.6-17.6,13.7-17.7,13.8c0,0,0,0,0,0l-42.3,43.6c0,0,0,0-0.1,0H93c-18.6,0-33.7,15.1-33.7,33.7
	v44.8c0,0.1,0,0.1-0.1,0.1l-22.2,0c-0.1,0-0.1,0-0.1-0.1v-57.6c0-9.7-7.8-17.5-17.5-17.5c-9.7,0-17.5,7.8-17.5,17.5v150.5
	c0,9.2,7,16.7,16,17.4c10.4,0.9,19-7.6,19-18l0-57.1c0-0.1,0-0.1,0.1-0.1h22.3c0.1,0,0.1,0,0.1,0.1v45.5c0,18.6,15.1,33.7,33.7,33.7
	h16.9c0,0,0,0,0.1,0l46.8,39.1c0,0,9.5,8,21.2,11.9c10.6,3.5,29.7,4.2,29.7,4.2h125.7c0,0,6.7,0,11.6-2.1c4.9-2.1,8-7.4,8.1-7.5
	c0,0,0,0,0,0l35.3-45.6c0,0,0,0,0.1,0h12.2c18.6,0,33.7-15.1,33.7-33.7v-45.5c0-0.1,0-0.1,0.1-0.1H463c0.1,0,0.1,0,0.1,0.1v57.1
	c0,10.5,8.6,18.9,19,18c9-0.8,16-8.3,16-17.4l0-150.5C498.1,182,490.3,174.2,480.6,174.2"/>
<g>
	<path class="st0" d="M318.9,251.7l-51.5,96.3c-6.2,10.8-23.5,6.3-23.5-7.2v-50.4c0-2.8-2.2-4.5-5-4.5l-22.4,3.9
		c-10.1,1.7-17.9-9-12.9-18.5l51.5-96.3c6.2-11.8,23.5-7.3,23.5,6.2v50.4c0,2.8,2.2,4.5,5,4.5l23-3.4c10.1-1.7,17.4,9,12.3,17.9
		V251.7z"/>
</g>
</svg>
