<?xml version="1.0" encoding="utf-8"?>
<svg viewBox="0 0 500 500" xmlns="http://www.w3.org/2000/svg">
  <path d="M 482.512 181.595 C 472.84 181.595 465.012 189.431 465.012 199.095 L 465.012 256.829 L 436.117 256.829 L 436.117 152.599 C 436.117 134.04 421.074 119.005 402.527 119.005 L 306.351 119.001 L 306.351 92.743 L 364.105 92.743 C 373.777 92.743 381.593 84.915 381.593 75.243 C 381.593 65.579 373.777 57.743 364.105 57.743 L 213.625 57.743 C 203.961 57.743 196.137 65.579 196.137 75.243 C 196.137 84.915 203.961 92.743 213.625 92.743 L 271.367 92.743 L 271.367 118.997 L 201.73 118.997 C 201.73 118.997 186.851 118.22 178.046 120.86 C 169.234 123.509 160.39 134.657 160.39 134.657 L 118.066 178.255 L 94.871 178.255 C 76.316 178.255 61.277 193.298 61.277 211.849 L 61.277 256.822 L 38.851 256.826 L 38.851 199.092 C 38.851 189.428 31.023 181.592 21.351 181.592 C 11.679 181.588 3.851 189.428 3.851 199.096 L 3.851 349.586 C 3.851 359.246 11.679 367.086 21.351 367.086 C 31.015 367.086 38.851 359.246 38.851 349.586 L 38.851 291.832 L 61.285 291.832 L 61.285 337.539 C 61.285 356.094 76.332 371.129 94.879 371.129 L 111.852 371.129 L 158.633 410.219 C 158.633 410.219 168.141 418.215 179.789 422.098 C 190.344 425.622 209.496 426.344 209.496 426.344 L 335.156 426.344 C 335.156 426.344 341.816 426.344 346.804 424.235 C 351.792 422.133 354.874 416.766 354.874 416.766 L 390.206 371.149 L 402.511 371.149 C 421.066 371.149 436.113 356.106 436.113 337.559 L 436.113 291.84 L 465 291.84 L 465 349.594 C 465 359.266 472.84 367.094 482.512 367.094 C 492.173 367.094 500 359.254 500 349.594 L 499.996 199.094 C 500.012 189.426 492.176 181.594 482.512 181.594 M 217.902 370.574 L 248.82 280.351 L 207.015 280.351 L 261.453 173.031 L 325.23 173.031 L 281.691 262.465 L 326.011 262.465 L 217.902 370.574 Z"/>
</svg>