<?xml version="1.0" encoding="utf-8"?>
<!-- Generator: Adobe Illustrator 27.0.1, SVG Export Plug-In . SVG Version: 6.00 Build 0)  -->
<svg version="1.1" id="Layer_1" xmlns="http://www.w3.org/2000/svg" xmlns:xlink="http://www.w3.org/1999/xlink" x="0px" y="0px"
	 viewBox="0 0 500 500" style="enable-background:new 0 0 500 500;" xml:space="preserve">
<style type="text/css">
	.st0{fill-rule:evenodd;clip-rule:evenodd;}
</style>
<path class="st0" d="M483.6,149.4c-4.1,0.4-7.7,3.2-9.8,7.6c-4,8.1-37.8,31.1-77,55c-53,32.3-115.7,66.3-127.6,66.9
	c-12.3-7.7-35.9-22.2-59-30.6c-10.1-3.7-20.1-6.3-29.8-6.3c-1.4,0-2.7,0.1-4,0.2c-9.5,0.8-20.1,6.3-25.7,17.3
	c-31.6-11.8-61.7-28.8-92.7-52.2c-10.4-15.9-21-32.9-31.5-51.1v0c-2.4-4.1-6.2-6.6-10.3-6.5c-4.6,0.1-8.8,3.4-10.8,8.4
	c-2.1,5.1-1.7,11.1,1,15.7c41.1,71.5,82,125.8,122.8,163.4l-4.9,18.6c-6.2,3.5-14.4,7.8-21.7,12.3c-4.6,2.9-9,5.7-12.9,9.7
	c-2,2-3.9,4.2-5.6,8.2c-1.7,4-2.9,11.1-0.9,16.8c2,5.5,6.5,9.1,11.4,9.1c24.4-0.3,41.2-0.4,54.4-0.6c8.3-0.2,12.2-6.4,14.9-10.8
	s4.7-9.3,6.8-14.7c1.6-4,3-8.5,4.6-12.9c54.3,32.5,109.3,33.7,161.4,2.6c55.6-33.2,108-101.3,158.4-202.4c2.4-4.6,2.6-10.5,0.5-15.4
	c-2.1-4.9-6.2-8-10.7-8.1C484.5,149.4,484.1,149.4,483.6,149.4L483.6,149.4z M407.5,268.3c-27.2,36.9-54.3,63.5-81.4,79.6
	c-46.2,27.6-91.9,26.8-140.7-3c4.3-11.2,8.8-21.7,13.3-28.7c5-7.9,8.7-10,11.2-9.9C276,316.8,341.7,304.1,407.5,268.3L407.5,268.3z
	 M104.4,270.9c12.4,6.5,25,12.4,37.8,17.3l-4.7,18.6C126.6,296.2,115.5,284.4,104.4,270.9z"/>
<ellipse cx="387.8" cy="183.4" rx="42.2" ry="42.2"/>
</svg>
