<?xml version="1.0" encoding="UTF-8"?><svg id="Layer_2" xmlns="http://www.w3.org/2000/svg" viewBox="0 0 404 480.28"><g id="Layer_1-2"><path d="M403.48,339.28c-.96-3.02-2.41-5.03-4.1-5.03h-60.79l-.72,14.09c-.24,3.52,.24,6.54,.96,9.56l3.86,12.07c37.63-3.02,57.89-10.06,60.55-21.13,.97-3.02,.97-6.54,.24-9.56h0Z"/><path d="M324.35,367.96c-4.18-6.54-6.28-14.09-5.23-21.63l18.83-166.51c6.8-2.52,12.03-9.56,10.98-17.61-.52-5.03-3.66-9.56-7.84-12.58l4.71-42.26c2.09-1.51,3.14-2.52,3.66-3.02,7.32-6.54,7.32-17.1,1.05-24.15-6.27-7.04-17.78-7.54-25.1-1.51,0,0-18.31,14.09-65.9,15.59-10.46,.5-20.4-.5-30.34-3.02-18.83-4.03-37.66,7.54-41.84,25.66v1.01l-14.12,83c0,.5,0,1.51-.52,2.01,0,3.52,.52,6.54,1.57,9.56,1.05,1.51,2.09,3.52,3.14,5.03l1.57,1.51,7.32,6.54-41.84,107.65H10.53c-3.66,0-6.8,1.51-8.89,4.53-2.09,3.02-2.09,6.54-.52,10.06,7.84,15.09,88.39,23.14,239.55,23.14h18.31c2.09-3.52,5.23-7.04,8.37-10.06l10.99-10.06c2.62-2.52,4.18-5.53,4.7-8.55l1.05-8.55h-22.5s7.32-76.47,7.32-76.47c.52-6.04-1.57-12.07-6.27-16.1l-24.58-21.63,10.46-60.37c16.74,9.56,35.56,16.1,54.92,18.61l16.21,2.01-18.31,164.5c-1.05,7.54-4.18,14.59-9.94,20.12l-10.99,10.06c-5.75,5.53-9.41,12.58-9.94,20.12l-6.28,56.85c-1.57,13.58,8.89,26.16,23.02,27.16l16.21,1.51c14.12,1.51,27.2-8.55,28.24-22.14l6.28-56.85c1.05-7.54-1.05-15.09-5.23-21.63l-8.36-11.56Zm-137.56-33.71l30.86-79.48,9.94,9.05-6.8,70.43h-34Zm121.34-190.66c-14.64-2.01-29.29-7.04-41.84-14.09,27.72-1.51,47.6-6.54,60.67-12.07l-3.14,28.17-15.69-2.01Z"/><path d="M234.91,78.34c21.44,4.71,42.36-8.89,47.07-30.33,4.71-21.44-8.89-42.37-30.33-47.07-21.45-4.71-42.37,8.89-47.07,30.34-4.19,21.44,9.42,42.36,30.34,47.07Z"/></g></svg>