<?xml version="1.0" encoding="utf-8"?>
<svg id="Layer_2" viewBox="0 0 404 480.28" xmlns="http://www.w3.org/2000/svg">
  <path d="M 399.432 339.28 C 398.385 336.26 396.804 334.25 394.961 334.25 L 328.661 334.25 L 327.876 348.34 C 327.614 351.86 328.137 354.88 328.923 357.9 L 333.133 369.97 C 374.173 366.95 396.269 359.91 399.17 348.84 C 400.228 345.82 400.228 342.3 399.432 339.28 Z" style=""/>
  <path d="M 314.35 367.96 C 310.17 361.42 308.07 353.87 309.12 346.33 L 327.95 179.82 C 334.75 177.3 339.98 170.26 338.93 162.21 C 338.41 157.18 335.27 152.65 331.09 149.63 L 335.8 107.37 C 337.89 105.86 338.94 104.85 339.46 104.35 C 346.78 97.81 346.78 87.25 340.51 80.2 C 334.24 73.16 322.73 72.66 315.41 78.69 C 315.41 78.69 297.1 92.78 249.51 94.28 C 239.05 94.78 229.11 93.78 219.17 91.26 C 200.34 87.23 181.51 98.8 177.33 116.92 L 177.33 117.93 L 163.21 200.93 C 163.21 201.43 163.21 202.44 162.69 202.94 C 162.69 206.46 163.21 209.48 164.26 212.5 C 165.31 214.01 166.35 216.02 167.4 217.53 L 168.97 219.04 L 176.29 225.58 L 134.45 333.23 L 0.53 333.23 C -3.13 333.23 -6.27 334.74 -8.36 337.76 C -10.45 340.78 -10.45 344.3 -8.88 347.82 C -1.04 362.91 79.51 370.96 230.67 370.96 L 248.98 370.96 C 251.07 367.44 254.21 363.92 257.35 360.9 L 268.34 350.84 C 270.96 348.32 272.52 345.31 273.04 342.29 L 274.09 333.74 L 251.59 333.74 C 251.59 333.74 258.91 257.27 258.91 257.27 C 259.43 251.23 257.34 245.2 252.64 241.17 L 228.06 219.54 L 238.52 159.17 C 255.26 168.73 274.08 175.27 293.44 177.78 L 309.65 179.79 L 291.34 344.29 C 290.29 351.83 287.16 358.88 281.4 364.41 L 270.41 374.47 C 264.66 380 261 387.05 260.47 394.59 L 254.19 451.44 C 252.62 465.02 263.08 477.6 277.21 478.6 L 293.42 480.11 C 307.54 481.62 320.62 471.56 321.66 457.97 L 327.94 401.12 C 328.99 393.58 326.89 386.03 322.71 379.49 L 314.35 367.93 L 314.35 367.96 Z M 176.79 334.25 L 207.65 254.77 L 217.59 263.82 L 210.79 334.25 L 176.79 334.25 Z M 298.13 143.59 C 283.49 141.58 268.84 136.55 256.29 129.5 C 284.01 127.99 303.89 122.96 316.96 117.43 L 313.82 145.6 L 298.13 143.59 L 298.13 143.59 Z"/>
  <path d="M 224.91 78.34 C 246.35 83.05 267.27 69.45 271.98 48.01 C 276.69 26.57 263.09 5.64 241.65 0.94 C 220.2 -3.77 199.28 9.83 194.58 31.28 C 190.39 52.72 204 73.64 224.92 78.35 L 224.91 78.34 Z"/>
</svg>