<?xml version="1.0" encoding="utf-8"?>
<svg viewBox="0 0 500 500" xmlns="http://www.w3.org/2000/svg">
  <path d="M 232.064 131.187 C 193.055 150.7 183.783 168.295 172.923 209.573 C -184.273 312.425 101.959 -156.336 232.064 131.187 Z M 256.284 150.432 C 222.834 150.432 195.717 178.504 195.717 213.138 C 195.717 247.769 222.834 275.844 256.284 275.844 C 289.734 275.844 316.855 247.773 316.855 213.138 C 316.855 178.504 289.738 150.432 256.284 150.432 Z M 256.284 187.481 C 241.726 187.481 229.921 198.964 229.921 213.135 C 229.921 227.301 241.725 238.785 256.284 238.785 C 270.846 238.785 282.651 227.301 282.651 213.135 C 282.651 198.964 270.846 187.481 256.284 187.481 Z M 332.825 243.397 C 343.043 200.995 335.562 182.561 311.005 147.657 C 462.568 -191.754 636.523 329.216 332.825 243.397 Z M 199.235 273.143 C -2.766 515.615 543.897 568.763 295.565 292.177 C 253.683 300.403 233.803 299.735 199.235 273.143 Z" fill-rule="evenodd" style=""/>
</svg>