<?xml version="1.0" encoding="utf-8"?>
<svg viewBox="0 0 500 500" xmlns="http://www.w3.org/2000/svg">
  <path d="M 78.265 44.719 L 78.265 455.645 C 78.265 467.49 82.971 478.851 91.345 487.231 C 99.724 495.605 111.085 500.311 122.931 500.311 L 390.926 500.311 C 402.771 500.311 414.132 495.605 422.511 487.231 C 430.887 478.852 435.591 467.49 435.591 455.645 L 435.591 123.515 C 432.736 124.588 429.709 125.134 426.659 125.122 L 337.327 125.122 C 330.221 125.122 323.4 122.299 318.376 117.274 C 313.353 112.249 310.529 105.429 310.529 98.323 L 310.529 8.991 C 310.517 5.94 311.063 2.914 312.135 0.058 L 122.936 0.058 C 111.092 0.058 99.73 4.764 91.35 13.138 C 82.976 21.518 78.27 32.88 78.27 44.724 L 78.265 44.719 Z M 247.995 116.184 C 266.95 116.184 285.127 123.714 298.527 137.117 C 311.931 150.517 319.461 168.695 319.461 187.65 C 319.461 206.605 311.931 224.782 298.527 238.182 C 285.127 251.586 266.95 259.115 247.995 259.115 C 229.041 259.115 210.863 251.586 197.463 238.182 C 184.06 224.782 176.53 206.605 176.53 187.65 C 176.53 168.695 184.06 150.517 197.463 137.117 C 210.863 123.714 229.041 116.184 247.995 116.184 Z M 149.731 330.581 C 149.731 318.735 154.435 307.374 162.811 298.995 C 171.189 290.621 182.551 285.915 194.396 285.915 L 301.594 285.915 C 313.44 285.915 324.801 290.621 333.18 298.995 C 341.554 307.373 346.26 318.735 346.26 330.581 L 346.26 410.98 C 346.26 413.348 345.319 415.622 343.645 417.297 C 341.969 418.972 339.696 419.912 337.327 419.912 L 158.663 419.912 C 153.73 419.912 149.731 415.912 149.731 410.98 L 149.731 330.581 Z" style=""/>
  <path d="M 426.659 107.251 C 430.288 107.271 433.571 105.094 434.962 101.744 C 436.353 98.393 435.579 94.529 432.999 91.978 L 343.668 2.645 C 341.115 0.065 337.251 -0.709 333.9 0.684 C 330.551 2.076 328.373 5.357 328.393 8.986 L 328.393 98.318 C 328.393 100.687 329.335 102.96 331.01 104.636 C 332.685 106.31 334.959 107.251 337.327 107.251 L 426.659 107.251 Z" style=""/>
</svg>