<?xml version="1.0" encoding="utf-8"?>
<svg viewBox="0 0 500 500" xmlns="http://www.w3.org/2000/svg">
  <path d="M 21.216 339.793 L 481.823 339.793 C 493.214 339.793 504.609 352.812 498.099 362.579 C 476.94 393.504 441.134 470 398.817 470 L 99.338 470 C 66.784 470 21.212 386.99 3.305 359.323 C -3.206 351.184 9.816 339.793 21.207 339.793 L 21.216 339.793 Z M 185.6 164.014 C 128.635 191.684 94.451 253.535 99.334 317.009 L 185.6 317.009 L 185.6 164.014 Z M 169.324 194.939 C 136.771 220.982 117.24 258.415 115.612 299.104 L 169.324 299.104 L 169.324 194.939 Z M 208.385 33.804 C 306.046 100.535 376.025 203.071 403.7 318.632 L 208.385 318.632 L 208.385 33.804 Z M 226.288 67.982 L 226.288 300.724 L 380.912 300.724 C 354.869 209.574 301.158 126.573 226.288 67.982 Z" fill-rule="evenodd" style=""/>
</svg>