<?xml version="1.0" encoding="utf-8"?>
<svg version="1.1" id="Layer_1" x="0px" y="0px" viewBox="0 0 500 500" style="enable-background:new 0 0 500 500;" xmlns="http://www.w3.org/2000/svg">
  <style type="text/css">
	.st0{fill:#FFFFFF;}
</style>
  <path d="M 498.233 340.746 C 496.055 336.995 492.232 334.724 488.124 334.733 L 308.693 334.733 L 308.693 283.521 L 440.558 283.521 C 445.06 283.521 449.177 280.781 451.192 276.444 C 453.207 272.106 452.773 266.916 450.069 263.036 L 307.38 58.194 L 307.38 58.199 C 304.311 53.788 298.964 51.992 294.107 53.732 C 289.254 55.477 285.977 60.369 285.977 65.88 L 285.145 270.722 L 285.145 334.731 L 262.196 334.731 L 262.196 40.27 L 262.196 39.117 L 262.196 37.455 C 262.058 36.416 261.735 35.418 261.245 34.509 L 261.245 33.613 C 260.648 32.503 259.836 31.543 258.864 30.797 L 258.271 30.158 C 257.184 29.353 255.978 28.744 254.704 28.366 L 253.278 28.366 C 252.252 28.238 251.212 28.238 250.185 28.366 L 248.76 28.366 L 246.025 29.391 L 245.312 29.391 L 131.161 104.924 C 102.46 123.934 84.974 157.618 84.974 193.899 C 84.974 230.179 102.46 263.863 131.161 282.878 L 208.33 334.727 L 12.489 334.727 C 7.126 334.444 2.253 338.061 0.597 343.558 C -1.015 348.834 0.712 354.625 4.877 357.899 L 135.672 460.317 L 135.676 460.317 C 137.877 462.04 140.565 462.901 143.284 462.748 L 440.557 462.748 C 445.032 462.734 449.124 460.012 451.139 455.708 L 498.703 353.291 L 498.699 353.287 C 500.591 349.305 500.408 344.547 498.225 340.74 L 498.233 340.746 Z M 211.907 270.718 C 199.369 252.753 192.092 231.171 191.013 208.727 C 189.933 186.287 195.098 164.01 205.843 144.746 L 238.422 86.493 L 238.422 309.122 L 211.907 270.718 Z" style=""/>
</svg>