<?xml version="1.0" encoding="utf-8"?>
<svg viewBox="0 0 500 500" xmlns="http://www.w3.org/2000/svg">
  <path d="M 112.507 173.314 L 112.507 443.349 C 112.507 474.633 137.875 500 169.158 500 L 247.525 500 C 278.808 500 304.175 474.632 304.175 443.349 L 304.175 173.314 C 304.175 142.031 278.807 116.663 247.525 116.663 L 169.158 116.663 C 137.874 116.663 112.507 142.032 112.507 173.314 Z M 358.334 299.998 C 335.336 299.998 316.668 318.667 316.668 341.664 C 316.668 364.663 335.336 383.331 358.334 383.331 C 381.332 383.331 400 364.663 400 341.664 C 400 318.667 381.332 299.998 358.334 299.998 Z M 270.834 333.332 L 270.834 283.332 L 145.835 283.332 L 145.835 333.332 L 270.834 333.332 Z M 191.669 25.001 L 150.002 25.001 C 140.803 25.001 133.336 32.467 133.336 41.667 C 133.336 50.867 140.803 58.334 150.002 58.334 L 191.669 58.334 L 191.669 66.667 L 175.002 66.667 C 165.802 66.667 158.336 74.133 158.336 83.334 L 158.336 109.233 C 161.851 108.635 165.468 108.334 169.154 108.334 L 247.519 108.334 C 251.204 108.334 254.818 108.635 258.338 109.233 L 258.338 83.334 C 258.338 74.133 250.872 66.667 241.671 66.667 L 225.004 66.667 L 225.004 58.334 L 282.04 58.334 C 297.857 58.334 313.021 64.617 324.204 75.8 C 335.386 86.983 341.671 102.15 341.671 117.965 L 341.671 294.516 C 346.887 292.667 352.488 291.666 358.337 291.666 C 364.186 291.666 369.787 292.667 375.003 294.516 L 375.003 117.965 C 375.003 93.314 365.204 69.666 347.772 52.232 C 330.338 34.799 306.689 25 282.038 25 L 225.003 25 L 225.003 16.666 C 225.003 7.467 217.538 0 208.337 0 C 199.138 0 191.671 7.467 191.671 16.666 L 191.671 25 L 191.669 25.001 Z" fill-rule="evenodd" style=""/>
</svg>