<?xml version="1.0" encoding="utf-8"?>
<svg viewBox="0 0 500 500" xmlns="http://www.w3.org/2000/svg">
  <path d="M 142.507 173.314 L 142.507 443.349 C 142.507 474.633 167.875 500 199.158 500 L 277.525 500 C 308.808 500 334.175 474.632 334.175 443.349 L 334.175 173.314 C 334.175 142.031 308.807 116.663 277.525 116.663 L 199.158 116.663 C 167.874 116.663 142.507 142.032 142.507 173.314 Z M 388.334 299.998 C 365.336 299.998 346.668 318.667 346.668 341.664 C 346.668 364.663 365.336 383.331 388.334 383.331 C 411.332 383.331 430 364.663 430 341.664 C 430 318.667 411.332 299.998 388.334 299.998 Z M 300.834 333.332 L 300.834 283.332 L 175.835 283.332 L 175.835 333.332 L 300.834 333.332 Z M 221.669 25.001 L 180.002 25.001 C 170.803 25.001 163.336 32.467 163.336 41.667 C 163.336 50.867 170.803 58.334 180.002 58.334 L 221.669 58.334 L 221.669 66.667 L 205.002 66.667 C 195.802 66.667 188.336 74.133 188.336 83.334 L 188.336 109.233 C 191.851 108.635 195.468 108.334 199.154 108.334 L 277.519 108.334 C 281.204 108.334 284.818 108.635 288.338 109.233 L 288.338 83.334 C 288.338 74.133 280.872 66.667 271.671 66.667 L 255.004 66.667 L 255.004 58.334 L 312.04 58.334 C 327.857 58.334 343.021 64.617 354.204 75.8 C 365.386 86.983 371.671 102.15 371.671 117.965 L 371.671 294.516 C 376.887 292.667 382.488 291.666 388.337 291.666 C 394.186 291.666 399.787 292.667 405.003 294.516 L 405.003 117.965 C 405.003 93.314 395.204 69.666 377.772 52.232 C 360.338 34.799 336.689 25 312.038 25 L 255.003 25 L 255.003 16.666 C 255.003 7.467 247.538 0 238.337 0 C 229.138 0 221.671 7.467 221.671 16.666 L 221.671 25 L 221.669 25.001 Z" fill-rule="evenodd" style=""/>
</svg>