<?xml version="1.0" encoding="utf-8"?>
<svg viewBox="0 0 500 500" xmlns="http://www.w3.org/2000/svg">
  <path d="M 264.783 72.809 C 276.545 72.809 286.064 63.289 286.064 51.528 L 286.064 6.727 C 286.064 -5.035 276.545 -14.554 264.783 -14.554 C 253.022 -14.554 243.502 -5.034 243.502 6.727 L 243.502 51.528 C 243.502 63.29 253.022 72.809 264.783 72.809 Z"/>
  <path d="M 107.983 125.449 C 111.905 129.371 117.502 131.609 123.104 131.609 C 128.706 131.609 133.745 129.371 138.225 125.449 C 146.623 117.051 146.623 103.609 138.225 95.769 L 106.866 64.41 C 98.468 56.012 85.026 56.012 77.186 64.41 C 68.788 72.808 68.788 86.25 77.186 94.09 L 107.983 125.449 Z"/>
  <path d="M 85.583 252.009 C 85.583 240.247 76.064 230.728 64.302 230.728 L 19.501 230.728 C 7.739 230.728 -1.78 240.248 -1.78 252.009 C -1.78 263.771 7.74 273.29 19.501 273.29 L 64.302 273.29 C 76.064 273.29 85.583 263.771 85.583 252.009 Z"/>
  <path d="M 107.983 378.569 L 76.624 409.928 C 68.226 418.326 68.226 431.768 76.624 439.608 C 80.546 443.53 86.144 445.768 91.745 445.768 C 97.347 445.768 102.386 443.53 106.866 439.608 L 138.225 408.249 C 146.623 399.851 146.623 386.409 138.225 378.569 C 129.823 370.171 116.385 370.171 107.983 378.569 Z"/>
  <path d="M 264.783 431.209 C 253.021 431.209 243.502 440.729 243.502 452.49 L 243.502 497.291 C 243.502 509.053 253.022 518.572 264.783 518.572 C 276.545 518.572 286.064 509.053 286.064 497.291 L 286.064 452.49 C 286.064 440.728 276.545 431.209 264.783 431.209 Z"/>
  <path d="M 421.583 378.569 C 413.185 370.171 399.743 370.171 391.903 378.569 C 384.063 386.967 383.505 400.409 391.903 408.249 L 423.262 439.608 C 427.184 443.53 432.782 445.768 438.383 445.768 C 443.985 445.768 449.024 443.53 453.504 439.608 C 461.902 431.21 461.902 417.768 453.504 409.928 L 421.583 378.569 Z"/>
  <path d="M 509.503 230.729 L 464.702 230.729 C 452.94 230.729 443.421 240.249 443.421 252.01 C 443.421 263.772 452.941 273.291 464.702 273.291 L 509.503 273.291 C 521.265 273.291 530.784 263.772 530.784 252.01 C 530.784 240.249 521.265 230.729 509.503 230.729 Z"/>
  <path d="M 406.463 131.609 C 412.065 131.609 417.104 129.371 421.584 125.449 L 452.943 94.09 C 461.341 85.691 461.341 72.25 452.943 64.41 C 444.545 56.011 431.103 56.011 423.263 64.41 L 391.341 95.207 C 382.943 103.605 382.943 117.047 391.341 124.887 C 395.821 129.367 400.86 131.609 406.462 131.609 L 406.463 131.609 Z"/>
  <path d="M 264.783 106.409 C 184.705 106.409 119.183 171.929 119.183 252.009 C 119.183 332.087 184.703 397.609 264.783 397.609 C 344.861 397.609 410.383 332.089 410.383 252.009 C 410.383 171.931 344.86 106.409 264.783 106.409 Z M 322.463 241.369 L 270.943 337.689 C 264.783 349.451 247.423 344.97 247.423 331.529 L 247.423 281.131 C 247.423 278.33 245.185 276.65 242.384 276.65 L 219.982 280.568 C 209.904 282.248 202.06 271.607 207.103 262.088 L 258.623 165.768 C 264.783 154.006 282.143 158.487 282.143 171.929 L 282.143 222.327 C 282.143 225.127 284.381 226.807 287.182 226.807 L 310.143 223.448 C 320.225 221.772 327.502 232.409 322.463 241.37 L 322.463 241.369 Z"/>
</svg>