<?xml version="1.0" encoding="UTF-8"?>
<svg id="Layer_2" data-name="Layer 2" xmlns="http://www.w3.org/2000/svg" viewBox="0 0 262.26 203.61">
  <defs>
    <style>
      .cls-1 {
        fill-rule: evenodd;
      }
    </style>
  </defs>
  <g id="Layer_1-2" data-name="Layer 1">
    <path class="cls-1" d="M69.99,101.91v2.92c0,1.48-1.1,2.72-2.56,2.9l-28.38,3.55c-1.46,.18-2.56,1.43-2.56,2.9v86.49c0,1.62-1.31,2.93-2.93,2.93h-12.85c-1.62,0-2.93-1.31-2.93-2.93V113.8c0-1.37-.95-2.55-2.28-2.85l-13.23-3.02c-1.33-.3-2.28-1.49-2.28-2.85v-39.09c0-1.62,1.31-2.93,2.93-2.93H67.07c1.62,0,2.93,1.31,2.93,2.93v35.92m8.89-22.6c0-4.27,2.48-8.15,6.36-9.94l28.52-13.12c1.44-.66,2.99-1,4.57-1h28.36c6.04,0,10.94,4.9,10.94,10.94v23.26c0,.69,.24,1.36,.69,1.89l14.57,17.24c.56,.66,1.37,1.04,2.23,1.04h9.12c6.04,0,10.94,4.9,10.94,10.94v2.14c0,1.62,1.31,2.93,2.93,2.93h53.22c9.93,0,14.69,12.18,7.4,18.92l-60.34,55.73c-2.34,2.16-5.4,3.36-8.58,3.36H62.19c-6.95,0-12.35-6.04-11.58-12.95l6.25-55.7c.58-5.15,5.29-9.36,10.46-9.36h42.2c1.62,0,2.93-1.31,2.93-2.93v-37.17c0-2.13-2.21-3.55-4.15-2.66l-5.85,2.69c-1.04,.48-1.7,1.52-1.7,2.66v13.4c0,5.41-3.79,10.25-9.13,11.1-6.84,1.09-12.74-4.17-12.74-10.79h0M116.62,27.2c-1.24-15.49,11.61-28.35,27.09-27.12,12.18,.96,22.04,10.83,23.01,23.01,1.23,15.47-11.6,28.32-27.08,27.11-12.18-.96-22.05-10.81-23.03-22.99Z"/>
  </g>
</svg>