<?xml version="1.0" encoding="utf-8"?>
<svg viewBox="327.197 131.065 66.445 15.956" xmlns="http://www.w3.org/2000/svg">
  <path d="m330.481 131.943.25.314v.141q0 .152-.391.423h-.531q-.964 0-1.3.704-.337.911-.337 2.038 0 .683.597 2.255.195.39 2.298 2.298 1.138 1.626 1.138 3.198 0 1.235-.531 2.417-.282.639-1.431 1.062-.434.228-.737.228-.412 0-.575-.347v-.152q0-.314.672-.379 1.236-.466 1.236-.965.39-.78.39-1.984 0-1.571-1.409-3.067-1.171-.889-1.756-1.724-.423-.455-.824-2.33 0-.228-.043-.575 0-1.442.542-2.569.683-.986 2.742-.986Zm7.235-.271h.174q.271 0 .401.368l-1.301 11.653q-.173 3.284-.455 3.284l-.087.044h-.206q-.455 0-.748-2.667-1.127-7.165-1.127-11.447l-.13-.563q0-.195.358-.412h.173q.661 0 .661 3.588.553 6.189 1.008 8.856h-.466q0-.683 1.214-11.024.098-1.68.531-1.68Zm11.36.271.25.314v.141q0 .152-.391.423h-.531q-.964 0-1.3.704-.337.911-.337 2.038 0 .683.597 2.255.195.39 2.298 2.298 1.138 1.626 1.138 3.198 0 1.235-.531 2.417-.282.639-1.431 1.062-.434.228-.737.228-.412 0-.575-.347v-.152q0-.314.672-.379 1.236-.466 1.236-.965.39-.78.39-1.984 0-1.571-1.409-3.067-1.171-.889-1.756-1.724-.423-.455-.824-2.33 0-.228-.043-.575 0-1.442.542-2.569.683-.986 2.742-.986Zm5.184-.152h.108q.781.358 1.247 1.691 1.214 3.75 1.788 9.561.38 1.886.38 3.36-.13.325-.748.325-.26-.498-.607-3.631-.098-.336-.412-2.721l-.098-.011q-2.059.195-2.059.26v1.691l-.293 3.968q.098.141.098.325 0 .184-.38.412-.737 0-.737-.705.336-4.574.336-5.485-.043-.596-.043-1.214.021-3.133.52-6.634.249-1.192.9-1.192Zm.195 1.116q-.553 2.125-.553 6.168-.043 0-.043.835v-.163q1.051-.292 2.092-.292v.162q0-1.301-1.431-6.211-.271-.585-.065-.499Zm7.043-1.582h.261q.422.206.422.563v.217q.38 7.046.943 11.339.358 2.71.846 2.71.358-.152.358-.607 0-1.702-.358-8.586.054-1.257.054-2.428v-1.029l-.054-.293.043-.098q-.032-.531-.141-1.268l.358-.26h.239q.433 0 .531 1.431 0 .303-.033.303.033.434.033.737v1.399l-.044.26q0-.184.055-.184-.055.737-.055.953v.174q.347 7.544.347 8.899-.141 1.464-1.398 1.464-1.431 0-1.832-4.358-.477-3.718-.921-11.078Zm6.544-.26h.369q1.875.617 2.851 2.352 1.409 2.862 1.409 5.886v.217q0 4.336-3.198 7.121-.498.163-.672.163-.368 0-.455-.943l.043-.087q-.119-.954-.173-3.002h-.076l.087.173v-.087q0-1.712.043-3.122Zm1.03 1.192v-.282q.044 4.889.174 7.718-.044 1.16-.044 2.385v.52q0 1.637.12 2.959.552-.477 1.387-1.831.987-2.168.987-4.076v-.434q0-2.677-1.323-5.463-.91-1.366-1.301-1.496Zm7.392-.466h.109q.78.358 1.246 1.691 1.214 3.75 1.789 9.561.379 1.886.379 3.36-.13.325-.748.325-.26-.498-.607-3.631-.097-.336-.412-2.721l-.097-.011q-2.06.195-2.06.26v1.691l-.292 3.968q.097.141.097.325 0 .184-.379.412-.737 0-.737-.705.336-4.574.336-5.485-.044-.596-.044-1.214.022-3.133.521-6.634.249-1.192.899-1.192Zm.195 1.116q-.552 2.125-.552 6.168-.044 0-.044.835v-.163q1.052-.292 2.092-.292v.162q0-1.301-1.431-6.211-.27-.585-.065-.499Zm6.025-1.842h.369q1.875.617 2.851 2.352 1.409 2.862 1.409 5.886v.217q0 4.336-3.198 7.121-.499.163-.672.163-.369 0-.455-.943l.043-.087q-.119-.954-.173-3.002h-.076l.086.173v-.087q0-1.712.044-3.122Zm1.03 1.192v-.282q.043 4.889.173 7.718-.043 1.16-.043 2.385v.52q0 1.637.119 2.959.553-.477 1.388-1.831.986-2.168.986-4.076v-.434q0-2.677-1.322-5.463-.911-1.366-1.301-1.496Zm7.728-.629.098.054q-.304 0-.304-.065 1.93.174 1.93.542v.076q-.141.401-.51.401l-1.257-.13q-.087 0-.553.033l.021.303q0 .716.206 5.518h.044q.314 0 .542-.044 1.019.087 1.604.087l.249.336v.184q0 .347-.444.347-.39 0-1.257-.086-.575.043-.727.043v-.043q0 3.056.293 6.85.054 0 .054.033 1.355-.076 1.735-.076.336.108.476.39v.087q0 .173-.346.39-1.724.044-2.071.087-.813 0-.813-.77-.303-4.141-.303-6.905v-1.387q-.217-3.816-.217-5.138-.13-.651-.13-.813l.336-.25h.585q.239 0 .759-.054Z" style="white-space: pre; fill: rgb(233, 243, 249); stroke: rgb(0, 0, 0); stroke-width: 0.02px;"/>
</svg>