<?xml version="1.0" encoding="utf-8"?>
<svg viewBox="254.621 120.277 62.283 33.221" xmlns="http://www.w3.org/2000/svg">
  <path d="M309.753 120.277c.002 1.89-.028-.89.193 5.675.31 9.217-4.326 15.657-9.103 20.186-4.851 4.599-8.398 4.99-9.079 5.804.951-.098 1.892-.542 2.798-.847 2.363-.796 5.189-1.679 6.966-3.611 1.406-1.529 2.13-3.551 3.45-5.132 1.468-1.76 3.236-2.11 4.018-4.472.502-1.519.436-1.162.789-4.088.213-1.768.817-1.824.944-2.022.173-.271-.412.616-.18-5.462.157-4.117-.338-4.739-.197-4.197.325.117 1.001 1.648 1.373 2.468.806 1.782 2.336 6.232 2.037 8.199-.46 3.025.38 3.012.568 3.731.646 2.474-1.366 3.947-1.604 4.313-.83 1.276-.438 2.971 1.157 3.221-.407-.983.174-1.62.539-2.538.491-1.236.799-2.544.913-3.879.379-4.478-2.903-13.028-3.278-13.873-.645-1.451-.821-1.951-2.304-3.476m1.399 4.584c.291 2.322-.636 4.708 1.64 8.589.073-3.71-.354-6.241-1.64-8.589m0 7.546c-.797 2.083-.076 5.264-.776 6.347-.887 1.374-2.321 2.346-3.488 3.418-1.284 1.178-3.187 3.683-3.731 5.398 3.234-.459 5.978-2.983 9.194-3.103-.509-.808-1.512-.983-1.633-2.116-.17-1.575 1.764-2.679 2.251-4.02.526-1.447-1.343-4.317-1.817-5.924M279.305 146.3c-.043-.809-.613-1.318-.986-1.974-.278-.487-.154-1.197-.407-1.593-.688-1.078-1.996-1.702-2.605-2.921 1.417 0 2.87.34 4.131 1.045.582.326 1.864 1.146 2.47 1.407.896.385 1.07.034 1.927.582.994.636 1.483 1.828 3.8 1.232.307-.078-.412-.569-.556-.652a72.512 72.512 0 0 0-2.511-1.362c-2.433-1.27-5.018-2.013-7.662-2.591-.391-.085-2.327-.654-2.526-.119-.13.347.387.851.565 1.093a20.299 20.299 0 0 1 1.753 2.821c.785 1.542.873 2.407 2.607 3.032m-3.065-5.994c1.552 1.562 2.991 2.894 5.263 2.68-1.265-1.094-3.557-2.609-5.263-2.68m-1.466 9.238c.811.324 1.52.927 2.399 1.035 2.457.302 4.69-1.4 6.929-2.163-1.301-.466-3.285 1.349-4.438.537-.706-.497.949-1.107 1.24-1.162 1.593-.3 5.054.259 6.196-1.208-1.776-.012.818-1.541 1.333-1.785 2.286-1.087 4.631-1.98 7.062-2.615.323-.084 3.226-.68 2.791.306-.375.849-2.192.816-2.925.863-1.798.116-5.061.454-6.196 2.172 1.185-.385 2.211-.932 3.465-1.096 2.048-.268 4.078.125 6.063-.578 2.384-.844 3.333-2.011 5.197-2.416-.708-.386-3.862-.84-8.662.255-7.099 1.62-13.522 5.565-20.454 7.855m13.126-2.186c.897-.022 1.827-.255 2.731-.331 2.442-.206 3.525 1.973 1.414 3.577-1.307.994-3.389 2-4.981 2.211-2.029.27-.293.087-3.009.334 7.891-2.371 8.129-4.497 4.711-4.871-3.81-.417-9.043 3.921-13.792 3.452 1.394 1.307 4.706.506 6.33.185.667-.132 2.862-1.445 3.494-.943.984.78-1.082 2.19-2.895 2.23-2.739.06-2.939.037-6.191-.46-1.954-.299-2.517-.743-1.271-1.576-.49-.175-1.087 0-1.599 0 .225-.36.583-.506.933-.705-.865-.122-4.099 1.199-4.191 1.501-.086.286.566.402.726.447.771.214 1.573-.415 2.332-.537-.354.184-.757.365-.999.705 2.795 0 5.525.855 8.328.915 3.752.081 7.349-.737 11.06-.945.893-.049 1.837.351 2.731.438 1.116.108 2.163-.104 3.265-.107.604-.001 1.188.295 1.799.309 3.248.073 6.728-.244 9.794-1.319.631-.222 1.238-.016 1.865-.371 1.817-1.026 1.582-3.552 3.065-4.774.036.888.342 2.426 2.265 3.527.728.428 1.35.25.978-.371-.296-.494-.988-.614-1.444-.867-.868-.483-1.611-1.453-1.732-2.5-1.679.692-1.755 3.878-3.398 4.937.549-1.099 1.188-2.168 1.199-3.456-.42.379-.619 1.146-.965 1.622-.815 1.127-1.897 2.11-3.166 2.609.773-1.058 1.314-1.79 1.666-3.103-1.336 1.219-2.141 2.904-3.997 3.456.721-.601 1.483-1.559 1.665-2.539-1.568 1.122-2.675 2.778-4.797 2.821.826-.531 1.619-1.252 1.932-2.257-1.782 1.008-3.112 2.284-5.263 2.328.699-.416 1.463-.915 1.732-1.764-1.717.58-3.088 1.363-4.93 1.536-.843.08-2.886.106-1.399-.83-.53-.12-1.137.187-1.666.26-1.447.2-2.724.369-4.33.657 1.55-.458 2.294-.657 3.397-1.161 3.281-1.499 6.487-3.656 9.216-6.085 1.204-1.073 2.798-2.381 3.51-3.897-1.758.264-3.042 2.357-4.731 3.028-3.38 1.343-8.762-.401-11.392 2.684m26.117-4.443c.401.358 1.086.855 1.501 1.219.025-.659-1.029-1.147-1.501-1.219m-35.245.212c.206 1.06.318 1.628 1.52 2.468.803.562.639 1.229.642 1.227 1.078-.57 4.419-1.819 4.267-2.058-1.139-1.79-3.081-.866-4.697-1.018-.673-.063-1.124-.352-1.732-.619m35.511 2.468c.336-.004.492-.454.785-.458.198-.002.457.507.28.659-.159.136-.649.032-.865.081 1.122.314.597 2.1 1.199 3.174.096-.541-.22-1.206-.257-1.763-.052-.767.195-1.466.39-2.187-.595.675-.862-.902-.066-.493.07-1.002-1.288.839-1.466.987m-4.397.705c.398-.277 1.375-.923 1.78-1.05 2.198-.688 1.58-.56 1.708-.624-1.08.159-3.142.402-3.488 1.674m-37.044 3.385c.744.127 1.779-.195 2.465-.493-.339-.207-.852.044-1.033-.496-.234-.701.481-2.183-.233-2.678.2-.123.371-.418.604-.452.564-.085.41.481.063.664.533.322 1.081-.296 1.575-.069.631.291-1.239.703-1.442.703.866.748 2.055-.346 2.827.13.361.222-.347.606-.495.664-.749.293-1.421.243-2.199.194 1.277 1.819 4.121-.275 5.589-.85-.589-.16-.027-.004-.658-.183-1.544-.437-2.826-1.561-4.464-1.784-.442-.06-1.259-.238-1.597.185-.333.417-.03 1.621-.014 2.138.03.966-.375 1.655-.988 2.327m30.981-1.468c-.763.172-.704.648-1.081.75-.717.194-1.397-.059-2.183.294-1.52.684-2.98 1.916-4.664 2.117v.141c1.572-.102 3.04-.848 4.464-1.496.34-.154 1.196-.541 1.396.03.208.594-.699 1.289-.93 1.748 1.379-.352 1.768-1.907 2.865-2.597.641-.403 1.312.163 1.158.905-.066.315-.218.602-.292.916 1.127-.477 1.025-1.988 1.938-2.655.817-.597 1.206.374 1.014 1.104-.09.341-.271.642-.354.987.937-.572.882-1.917 1.618-2.65.667-.665 1.129.197 1.02.887-.058.363-.211.687-.239 1.058.845-.697.633-1.816 1.286-2.608.667-.809 1.902-1.095 2.711-1.765-1.995-.059-1.542.622-5.694 2.135m-33.489 2.434c-1.159-.384-16.007 2.464-17.205 2.736m-2.036.282c.58.326 19.478-2.068 18.071-2.316 2.573-.899-11.723 1.642-14.966 1.863 2.774-.451 7.94-1.506 7.94-1.506-2.907.433-9.3 1.837-11.55 1.921" style="paint-order: fill; stroke-width: 0.1px; stroke: rgb(180, 194, 211); fill: rgb(250, 250, 250);"/>
</svg>