<?xml version="1.0" encoding="UTF-8" standalone="no"?>
<!DOCTYPE svg PUBLIC "-//W3C//DTD SVG 1.1//EN" "http://www.w3.org/Graphics/SVG/1.1/DTD/svg11.dtd">
<!-- Created with Vectornator (http://vectornator.io/) -->
<svg height="100%" stroke-miterlimit="10" style="fill-rule:nonzero;clip-rule:evenodd;stroke-linecap:round;stroke-linejoin:round;" version="1.1" viewBox="0 0 158.321 278.363" width="100%" xml:space="preserve" xmlns="http://www.w3.org/2000/svg" xmlns:xlink="http://www.w3.org/1999/xlink">
<defs>
<linearGradient gradientTransform="matrix(0.0305087 0.13762 -0.0818191 0.0248577 99.3852 20.0174)" gradientUnits="userSpaceOnUse" id="LinearGradient" x1="518.924" x2="518.924" y1="133" y2="604.06">
<stop offset="0" stop-color="#003087"/>
<stop offset="1" stop-color="#45c8ff"/>
</linearGradient>
</defs>
<g id="Untitled">
<path d="M8.07444 253.862C8.07444 240.33 40.3968 229.36 80.2684 229.36C120.14 229.36 152.462 240.33 152.462 253.862C152.462 267.393 120.14 278.363 80.2684 278.363C40.3968 278.363 8.07444 267.393 8.07444 253.862Z" fill="#000000" fill-opacity="0.2263" fill-rule="nonzero" opacity="1" stroke="none"/>
<path d="M97.5055 221.067C76.8483 262.322 86.1941 262.968 63.2574 222.509L15.0096 128.656C8.03451 117.395 3.91484 103.973 3.91484 89.1246C3.91484 62.2413 18.2567 37.4007 41.5374 23.96C91.7015-5.00316 154.406 31.2003 154.406 89.1246C154.406 95.1786 153.679 101.129 152.286 106.869C151.612 110.862 150 115.48 147.45 120.725C146.84 122.041 146.192 123.34 145.509 124.619L97.5055 221.067Z" fill="#aae4ff" fill-rule="nonzero" opacity="1" stroke="#003aa6" stroke-linecap="butt" stroke-linejoin="miter" stroke-width="5.6"/>
<path d="M24.612 88.7159C24.612 57.9662 49.5396 33.0386 80.2893 33.0386C111.039 33.0386 135.967 57.9662 135.967 88.7159C135.967 119.466 111.039 144.393 80.2893 144.393C49.5396 144.393 24.612 119.466 24.612 88.7159Z" fill="#fffefe" fill-rule="nonzero" opacity="1" stroke="none"/>
<path d="M108.775 49.5382C108.781 53.348 108.725 47.7445 109.128 60.978C109.693 79.5621 101.242 92.5447 92.5342 101.675C83.6913 110.945 77.2257 111.736 75.9833 113.377C77.718 113.178 79.4328 112.283 81.0839 111.668C85.3908 110.063 90.5428 108.283 93.7823 104.388C96.3468 101.307 97.6662 97.2299 100.071 94.0408C102.747 90.4953 105.971 89.789 107.396 85.0268C108.312 81.9641 108.192 82.6828 108.834 76.7846C109.223 73.2201 110.324 73.107 110.555 72.7096C110.871 72.1612 109.805 73.9511 110.228 61.6966C110.514 53.3946 109.61 52.1417 109.868 53.2349C110.46 53.4716 111.693 56.5561 112.37 58.2119C113.84 61.804 116.628 70.7743 116.083 74.741C115.245 80.8397 116.777 80.8111 117.119 82.2617C118.296 87.2501 114.629 90.2187 114.195 90.9573C112.683 93.5294 113.398 96.9476 116.305 97.4523C115.563 95.4695 116.621 94.1853 117.287 92.3336C118.182 89.8423 118.744 87.2055 118.951 84.5145C119.642 75.4852 113.66 58.248 112.976 56.5447C111.8 53.6198 111.479 52.6113 108.775 49.5382M111.326 58.7803C111.856 63.4608 110.166 68.2715 114.316 76.0955C114.449 68.6156 113.67 63.5131 111.326 58.7803M111.326 73.9929C109.873 78.1914 111.187 84.6038 109.912 86.7891C108.294 89.5581 105.68 91.5181 103.552 93.6787C101.212 96.0541 97.7441 101.104 96.7518 104.561C102.648 103.636 107.649 98.5483 113.512 98.305C112.583 96.6767 110.756 96.325 110.535 94.0408C110.225 90.8651 113.75 88.6379 114.638 85.9355C115.597 83.0174 112.191 77.2314 111.326 73.9929M53.271 102.002C53.194 100.371 52.155 99.343 51.4735 98.0208C50.9687 97.0398 51.195 95.6083 50.734 94.8098C49.4792 92.6369 47.0934 91.3803 45.985 88.9221C48.5667 88.9221 51.2168 89.6075 53.5143 91.0285C54.5751 91.6854 56.9116 93.3384 58.018 93.865C59.651 94.6406 59.9676 93.9325 61.5303 95.0379C63.3429 96.3212 64.2336 98.7223 68.4569 97.5217C69.0167 97.3639 67.7059 96.3735 67.4427 96.2071C65.9341 95.2509 64.4038 94.3479 62.8658 93.461C58.4315 90.9021 53.7187 89.4041 48.8994 88.2377C48.1875 88.0657 44.6571 86.9203 44.294 87.9973C44.0583 88.6988 45.0012 89.7139 45.3244 90.2016C46.525 92.0067 47.5924 93.8745 48.5192 95.8877C49.9498 98.9989 50.1114 100.74 53.271 102.002M47.6856 89.9164C50.5134 93.0656 53.1369 95.7518 57.2804 95.3193C54.9724 93.114 50.7939 90.0609 47.6856 89.9164M45.0126 108.542C46.4917 109.194 47.7825 110.411 49.3851 110.628C53.8641 111.236 57.9362 107.807 62.016 106.267C59.6453 105.328 56.0276 108.987 53.9259 107.35C52.6389 106.348 55.6559 105.118 56.1863 105.007C59.0912 104.404 65.3999 105.53 67.4816 102.571C64.2431 102.547 68.973 99.4656 69.9103 98.9732C74.0784 96.7822 78.354 94.9809 82.7845 93.7015C83.3747 93.5313 88.6655 92.3289 87.8727 94.3174C87.1893 96.0303 83.8785 95.9628 82.5411 96.0588C79.2627 96.2927 73.3151 96.9733 71.2477 100.438C73.4054 99.6605 75.2761 98.5569 77.5622 98.2261C81.2959 97.6862 84.9954 98.4789 88.6141 97.0626C92.961 95.3611 94.691 93.0085 98.0873 92.192C96.7974 91.4126 91.0476 90.4972 82.2987 92.7063C69.3561 95.9723 57.6482 103.926 45.0126 108.542M68.9388 104.135C70.5747 104.091 72.2714 103.62 73.9187 103.467C78.3692 103.053 80.3434 107.445 76.4966 110.679C74.1126 112.683 70.319 114.71 67.416 115.135C63.7184 115.68 66.8799 115.311 61.9314 115.808C76.315 111.03 76.7485 106.744 70.5177 105.989C63.5739 105.148 54.0343 113.894 45.3776 112.95C47.9184 115.584 53.9563 113.967 56.9154 113.321C58.133 113.056 62.1329 110.408 63.2869 111.422C65.0805 112.994 61.3126 115.836 58.0085 115.917C53.0162 116.037 52.6503 115.991 46.7227 114.989C43.16 114.385 42.1334 113.491 44.4052 111.812C43.5127 111.458 42.4243 111.812 41.4918 111.812C41.9005 111.086 42.5536 110.791 43.1914 110.39C41.6154 110.144 35.7172 112.807 35.5528 113.416C35.396 113.993 36.5822 114.228 36.876 114.317C38.2809 114.749 39.7438 113.48 41.1258 113.234C40.4804 113.606 39.7466 113.97 39.3046 114.655C44.3995 114.655 49.3766 116.38 54.4858 116.501C61.3249 116.665 67.8828 115.015 74.6468 114.596C76.2751 114.496 77.9975 115.305 79.6267 115.478C81.6609 115.696 83.5677 115.269 85.5781 115.264C86.6779 115.261 87.7434 115.858 88.8575 115.885C94.7775 116.032 101.121 115.395 106.711 113.226C107.862 112.778 108.967 113.194 110.111 112.48C113.422 110.411 112.995 105.317 115.698 102.855C115.763 104.645 116.321 107.745 119.827 109.963C121.153 110.828 122.286 110.468 121.609 109.217C121.069 108.221 119.808 107.979 118.977 107.468C117.394 106.496 116.04 104.542 115.819 102.428C112.759 103.825 112.622 110.247 109.625 112.382C110.626 110.167 111.791 108.011 111.811 105.414C111.045 106.179 110.682 107.724 110.053 108.685C108.565 110.957 106.593 112.938 104.282 113.945C105.689 111.812 106.676 110.336 107.317 107.689C104.882 110.146 103.416 113.544 100.03 114.655C101.347 113.446 102.734 111.514 103.067 109.539C100.208 111.8 98.1899 115.137 94.3222 115.225C95.8278 114.154 97.2736 112.7 97.844 110.674C94.5959 112.706 92.1702 115.279 88.2501 115.367C89.5238 114.53 90.9164 113.524 91.4069 111.812C88.2767 112.98 85.7787 114.56 82.4204 114.909C80.8834 115.07 77.1582 115.122 79.8691 113.234C78.9043 112.993 77.7979 113.612 76.8331 113.76C74.1963 114.162 71.8684 114.502 68.9388 115.083C71.7648 114.16 73.1222 113.76 75.1335 112.743C81.1124 109.722 86.9564 105.373 91.9325 100.474C94.1273 98.3135 97.0331 95.6748 98.3306 92.6179C95.1263 93.1502 92.7852 97.3706 89.7073 98.7223C83.5449 101.43 73.7343 97.9153 68.9388 104.135M116.548 95.1767C117.28 95.8991 118.529 96.902 119.284 97.6348C119.33 96.306 117.409 95.3212 116.548 95.1767M52.3005 95.6035C52.6759 97.7404 52.8803 98.8867 55.0713 100.58C56.5342 101.713 56.2357 103.058 56.2424 103.054C58.2062 101.904 64.2964 99.3867 64.0188 98.9038C61.9437 95.2965 58.403 97.1586 55.4572 96.8525C54.231 96.7242 53.4088 96.1425 52.3005 95.6035M117.034 100.58C117.646 100.571 117.931 99.6652 118.465 99.6576C118.825 99.6528 119.298 100.678 118.976 100.985C118.686 101.26 117.793 101.051 117.399 101.149C119.443 101.782 118.487 105.382 119.584 107.546C119.76 106.457 119.184 105.116 119.114 103.993C119.021 102.447 119.471 101.038 119.827 99.5854C118.741 100.946 118.255 97.766 119.706 98.5901C119.832 96.5712 117.359 100.28 117.034 100.58M109.019 102.002C109.743 101.444 111.525 100.14 112.264 99.8829C116.269 98.497 115.143 98.7555 115.377 98.6253C113.408 98.9475 109.648 99.4361 109.019 102.002M41.4918 108.828C42.8463 109.082 44.7351 108.433 45.985 107.831C45.3653 107.414 44.4318 107.921 44.102 106.832C43.6743 105.42 44.9784 102.431 43.6771 101.433C44.0412 101.184 44.352 100.591 44.7769 100.521C45.8063 100.351 45.5259 101.491 44.8919 101.86C45.8624 102.508 46.8624 101.263 47.7635 101.722C48.9127 102.309 45.506 103.137 45.1353 103.139C46.7132 104.647 48.8794 102.44 50.2882 103.4C50.9459 103.848 49.6541 104.622 49.3851 104.739C48.0202 105.33 46.7968 105.23 45.3776 105.129C47.7055 108.798 52.8907 104.575 55.5656 103.416C54.4924 103.095 55.5171 103.409 54.365 103.048C51.5505 102.166 49.215 99.9009 46.2274 99.4513C45.4223 99.3306 43.9338 98.9713 43.3188 99.8239C42.7114 100.663 43.2617 103.092 43.2912 104.135C43.3463 106.081 42.6078 107.471 41.4918 108.828M97.9675 105.867C96.574 106.213 96.6824 107.173 95.997 107.378C94.6881 107.77 93.4486 107.259 92.0171 107.971C89.2444 109.35 86.5828 111.834 83.5135 112.239L83.5135 112.523C86.3804 112.317 89.0561 110.813 91.6502 109.508C92.2709 109.196 93.8317 108.416 94.1967 109.567C94.576 110.767 92.9211 112.166 92.5 113.092C95.0142 112.382 95.7242 109.248 97.7232 107.855C98.8905 107.042 100.115 108.184 99.8334 109.679C99.7146 110.316 99.4361 110.895 99.3021 111.528C101.357 110.566 101.17 107.521 102.835 106.175C104.325 104.971 105.033 106.927 104.683 108.4C104.52 109.088 104.19 109.695 104.039 110.39C105.746 109.237 105.645 106.527 106.987 105.049C108.205 103.708 109.046 105.445 108.847 106.836C108.742 107.569 108.462 108.22 108.41 108.968C109.952 107.563 109.566 105.308 110.755 103.713C111.971 102.081 114.222 101.505 115.698 100.154C112.061 100.033 112.885 101.408 105.317 104.457M44.2703 109.364C42.1572 108.589 15.0914 114.331 12.907 114.881M9.19607 115.447C10.254 116.106 44.7047 111.281 42.1382 110.78C46.8272 108.967 20.768 114.091 14.8556 114.536C19.9135 113.626 29.3296 111.499 29.3296 111.499C24.0312 112.372 12.3775 115.202 8.275 115.372" fill="url(#LinearGradient)" fill-rule="nonzero" opacity="1" stroke="none"/>
</g>
</svg>
