<?xml version="1.0" encoding="utf-8"?>
<!-- Generator: Adobe Illustrator 27.0.1, SVG Export Plug-In . SVG Version: 6.00 Build 0)  -->
<svg version="1.1" id="Layer_1" xmlns:v="https://vecta.io/nano"
	 xmlns="http://www.w3.org/2000/svg" xmlns:xlink="http://www.w3.org/1999/xlink" x="0px" y="0px" viewBox="0 0 601.2 906.7"
	 style="enable-background:new 0 0 601.2 906.7;" xml:space="preserve">
<style type="text/css">
	.st0{fill:#FFFFFF;}
</style>
<path class="st0" d="M0,879.4V0h601.2v813.2c-0.6,0.8-1.5,0.7-2.2,0.7h-27.1c-0.8,0-1.8,0.2-2.4-0.8c-0.1-0.3-0.1-0.7,0.2-0.9
	c2.2-1.6,1.5-3.7,0.9-5.7c-1.2-4.2-2.1-8.4-3.5-12.6c-0.3-0.9-0.5-1.8-1.3-2.4c-2.2-0.2-4.5-0.7-7-0.8L345.6,211.1
	c-2.1-0.4-2.1,0.7-2.3,1.8c-0.4,3.1-0.3,6.2-0.7,9.3c-0.1,0.8,0,1.8-1.1,2.4c-1.2-0.1-1.4-1-1.8-2c-1.9-5.1-2-10.4-2.6-15.7
	c-2-17.8-2.2-35.7-3.3-53.5l-2-38.5c0.2,6.3,0.8,14.9,1.2,23.4l2.5,48c0.5,10.9,2.1,21.7,2,32.7c0,8.6,0.4,17.1,1.2,25.7
	c0.6,6.3,1,12.6,0.2,18.8c-1.2,8.5-1.8,17-3.1,25.5c-0.6,4.2-1.1,8.3-1.4,12.5c-0.1,0.7,0.1,1.9-1.1,2.2c-1.2-0.4-0.9-1.5-1-2.3
	c-0.5-3.5-0.2-7-0.6-10.5c-1.2-9.1-1.7-18.3-1.4-27.5l1.6-36.4c0.1-1.4,0.3-2.9-0.3-4.3c-0.9-2.3-0.4-4.6-0.3-6.6
	c-0.6,3.2,0.1,6.7-0.4,10.3c-0.5,3.7,0,7.6-1.4,11.3c-1.4-0.4-1.5-1-1.5-1.8l-1.7-24.3l-1.5-21.2l-1.4-19.8l-3.1-39.8
	c-0.3-2.6,0.1-5.2-0.7-7.9c-2.8-0.7-5.6-0.9-8.4-0.8c-7.2,0.2-14.4-0.4-21.6-0.6l-23.3-0.9c-0.9-0.1-1.8-0.2-3,0.4
	c-2.7,4.4-5.2,9.4-7.7,14.3c-4.5,8.9-8.6,18.1-12.2,27.4c-5.9,15.2-11.1,30.6-15.7,46.3l-9.2,33.7l-7.4,29.5l-12.8,52.5l-10.7,45.5
	l-6.7,28.8l-7.7,34.4l-7.6,34.2l-5,23.5c-1.8,8.7-3.9,17.3-5.8,25.9l-6.6,30.8l-10.1,46l-10.4,47l-9.2,42.4
	c-0.2,0.7-0.2,1.4,0.1,2.3c1.3,1.5,3.5,1.5,5.3,1.9l32.3,7l46.6,9.4c5.2,0.9,10.4,2.1,15.6,3.2c5.7,1.2,11.6,2.1,17.3,3.3
	c1,1.7,0.2,4.7-1.7,6.9L45.9,684.5l51.8,9c1.2,2.8-1.1,5.5-0.3,8.4c2.7,1.3,5.7,1.2,8.5,1.9c2.9,0.7,5.9,1.2,8.8,1.4
	c1.2,0.1,1.9,0.9,2,2.1c1.3,9.6,2.8,19.1,2.5,28.8c-0.1,3.4-0.6,6.8-0.5,10.2c0.1,1.4,0,2.9,1.4,4.1c1.4-1.4,1.4-3.1,1.5-4.7
	c0.3-7.6,1.1-15.1,1.6-22.7c0.2-2.9,0.9-5.8,1.1-8.8c0-0.8,0.4-1.6,1.2-1.9c1.2-0.4,1.9-1.4,2.7-2.2c1.3-0.6,2.5-0.4,3.8-0.2
	l36.2,5.1l53.8,8.6c2.4,0.4,4.9,1,7.3,1.5c1.6,0.3,2.1,1.3,1.5,2.9c-0.7,2-1.3,4-2.1,5.9c-2.7,1-5.9,0.7-9.6-1
	c-0.2-3.7-3.2-4.1-6.2-4.9c-8.9-2.3-17.9-3.7-26.9-4.5c-8.2-0.8-16.4-0.9-24.7,0.1c-0.5,0.1-1,0-1.4,0.6c0.5,0.8,1.3,1.1,2.2,1.1
	c7.4,0.2,14.6,1.9,21.8,2.9l26.3,4.1c1.3,0.2,2.7,0.3,3.8,1.2c0.8,2-1.8,3-1.3,5c0.4,1.6,1.1,3.3,1.1,5.2c-2.1,1.6-1.8,5-4,6.5
	c-1.4,0.1-2.5-0.6-3.7-0.6c-2.8-0.2-4.2,0.8-5,3.4c-0.4,1.2-0.6,2.5-1.1,3.7c-0.5,1.4-1.9,2.2-3,1.4c-2-1.4-4.1-1.5-6.4-1.5
	c-0.6,0-0.9-0.2-1.2-0.6c-0.5-1.3,0.7-1.8,1.4-2.4c2.7-2.1,5.6-4,7.6-5.5c-2.8,2.4-6.9,4.6-10.2,7.8c-0.7,0.6-1.5,1-2.2,0.9
	c-2.7-0.2-5.4,0.2-8.1,0.1c-1.9-1.5-1.3-4-3-5.4c2-1.6,2.2-3.7,2.9-5.6s-0.1-3-1.4-4.1s-2.6-1.1-4-0.4c-1.5,0.8-2.1,2.1-1.9,3.8
	c0.2,1.5,0.6,2.9,1,4.7c-1.5,1.8-2.2,4.1-3.4,6.3c-0.6,1-1.4,1.2-2.5,1.2c-1.2,0-2.5,0.1-3.7,0c-2.1-0.2-3.9,0.1-5.8,1.2
	c-2.5,1.4-5.4,1-8.2,0.8c-3.9-0.3-7.8-0.9-11.6,0.4c-1.3,0.4-2.7,0.2-4.1,0.2c-2.9,0-5.8-0.2-7.7,2c-1,0.2-1.7,0.2-2.1-0.2
	c-2.3-1.6-4.5-0.6-6.5,0.4c-1.6,0.8-3.3,1.1-5.1,1c-7.6-0.3-15.2,0.7-22.8,0.5c-1.6,0-3.4-0.1-4.2,1.8c0.4,1.3,1.4,1.3,2.4,1.4
	l18.4,1.5l11.5,1c1.8,0.2,2.4,1.2,2.4,2.7v33.8c0,0.5-0.1,1-0.5,1.5c-2,1.2-4,2.6-5.9,4.2c-1.5,1.3-3.6,1.3-5.5,1.3
	c-4.8,0-9.6,0.9-14.4,1c-1.2,0-1.8,0.8-2.4,1.5c-9.7,9.9-18.4,20.7-26,32.4c-2,3-3.8,6.1-5.6,9.2c-0.8,1.4-1.7,1.8-3.2,1.8
	c-2.3,0-4.6,0-6.9,0.1c-1.6,0.1-2.6,0.7-3.3,1.9c-2.6,4.6-3.7,9.6-4.8,14.6c2.4,2.3,5.8,1.2,7.9,3c-0.5,1.5-1.7,1.3-2.5,1.2
	c-14.4-0.2-28.8,0.1-43.2-0.1C1.5,880,0.7,880.1,0,879.4L0,879.4z"/>
<path d="M0,879.4l27.6-0.1h19.9l-8.2-2c0-1.2-0.2-2.4,0-3.3c1.3-4.4,2.5-8.8,4.1-13c0.4-1.1,2.3-2.1,3.7-2.3
	c3.1-0.5,6.4-0.4,9.6-0.5l8.6-13.4c7.1-10.7,15.1-20.6,24.4-29.5c1.6-1.6,5-1.6,7.6-2c3.2-0.4,6.4-0.6,9.6-0.6c4.4,0,7.1-3,10.1-5.4
	c0.4-0.4,0.6-1.3,0.6-2v-31.9c0-0.6-0.2-1.2-0.4-2.1l-36.9-3.2c0.6-1.5,0.7-2.8,1.4-3.2c1.6-0.9,3.4-1.9,5.2-2
	c7.9-0.4,15.8-0.4,23.7-0.5c2.7,0,5-0.5,7.1-2.5c2-1.8,4-0.7,5.7,2.3c0.6-1.3,0.9-2,1.2-2.8l15.8-0.8c3.3-0.1,6.6,0.1,9.8-0.2
	c2.2-0.2,4.4-1,6.7-1.3c1.6-0.3,3.2-0.4,4.7-0.4c1.6-0.1,3.2,0,4.7,0l4.1-6.8c-0.2-1.2-0.6-2.7-0.8-4.2c-0.3-2,0.4-3.9,2.3-4.5
	c1.5-0.5,3.4-0.3,4.9,0.3c1.8,0.8,2.5,2.6,1.8,4.7c-0.6,1.9-1.3,3.8-2.2,6.3c0.3,0.7,1,2,1.8,3.6c3.8,0.1,7.6,1,11.1-1.9
	c3.7-3.1,7.7-5.8,11.5-8.6c0.7-0.5,1.5-0.8,2.3-1.2c0.2,0.3,0.4,0.6,0.6,1l-14,10.5l8.7,1.3c0.3-1.1,0.8-2.6,1.3-4.2
	c1.3-4.6,3.8-5.7,8.3-3.8c0.4,0.1,0.7,0.3,1.2,0.5c0.5-1,1-2.1,1.5-3c0.6-1,1.2-1.9,1.9-2.8c0-3-2.3-6.1,0.9-9.2l-49.8-7.8
	c-0.7,0.8-1.4,1.5-1.7,1.8l-7.9-4.6c1.3-0.6,2.1-1.2,2.9-1.2l25.1-0.3c0.9,0,1.8-0.3,2.5-0.5l34.8,6.1l0.4,4.6l7.9,1.2l2.4-6.9
	c-33.6-6.8-67.3-11.3-100.4-15.6l-4,3.3c-0.2-0.1-0.5-0.3-0.7-0.4l-0.9,9.7l-2,25.1c-0.1,1.6-0.6,3.1-1.2,4.6
	c-0.3,0.7-1.2,1.1-2.4,2.2c-0.4-2.5-0.9-4.2-0.9-5.8c0.3-13.5,0.3-27-1.9-40.4c-0.1-0.6-0.1-1.1-0.3-1.7c-0.1-0.4-0.3-0.7-0.6-1.2
	l-19.1-3.5l1.2-8.6l-57.1-10l0.3-1.5l193.5,33.6l1.8-5.2L117,687.2c0.2-1.5,0.2-2.6,0.4-3.6l29.8-136.1l14.2-65.4l14.4-64.8
	l20.5-88.5l17.3-70.3c6.3-25.6,13-51.1,21.6-76.1c7.1-20.7,15.5-40.8,26.2-59.9c0.6-1,2.1-2.3,3.2-2.2l53.7,1.8
	c0.5,0,0.9,0.2,2.2,0.3l8.2,114.1l1.9-26.1h1.3v4.7c0,1.7-0.2,3.3-0.2,5h0.8c0.1,2.5,0.4,4.9,0.3,7.4c-0.4,8.8-1.2,17.6-1.2,26.3
	l0.7,49h1c1.4-13.1,3.4-26.2,4.1-39.3c0.6-10.6-0.2-21.2-0.5-31.8c-0.2-7.4-0.8-14.8-1.2-22.3l-3.3-61.3l-1.5-29.7l-0.4-8.6
	c0-0.9,0.2-1.8,0.3-2.7c0.3,0,0.6,0,0.9-0.1c0.2,1.1,0.5,2.3,0.6,3.4l1,20.1l3.4,61.5c0.6,9.2,1.9,18.3,3,27.4
	c0.2,1.4,0.8,2.8,1.3,4.7l2.1-14.6c0-0.3,0.9-0.5,2-1.1l214,581.6c1.8,0.2,3.3,0.6,4.8,0.6c2.3,0,3.3,1.1,3.8,3.1c1,4,2,8.1,3.3,12
	c0.6,1.9,1.8,3.7,2.8,5.8c-1,0.5-2.2,1-3.3,1.5v0.4H601v1.4c-1.1,1.4-2.7,1.2-4.2,1.2H569c-5.1-0.1-9.6,1.3-13.6,4.4
	c-0.7,0.5-1.4,0.7-2.2,0.8c-1.2,0.1-2.4,0.3-3.5,0.8c-5.9,2.5-6.2,3.4-6.6,8.7c-0.9,13.6-2.4,27.2-4.3,40.7
	c-0.2,1.1-0.5,2.2-0.9,3.2c-0.3,0.9-0.7,1.8-0.1,2.8c1.1,1.2,2.6,0.9,4,0.9h40.8c1.2,0,2.4,0,3.6,0.1s2.3,0.4,2.3,1.9
	c0,1.3-1.1,1.6-2.2,1.7c-1.3,0.1-2.6,0.1-3.8,0.1h-44.1H73.1c-3,0-6.1-0.2-9,1.1c-1.2,0.5-2.5,0.2-3.8-0.1c-4-1-8.1-1.1-12.1-1.1
	H4.3c-1.6,0-3.2,0.3-4.4-1.2C0,880.3,0,879.9,0,879.4L0,879.4z"/>
<g>
	<path class="st0" d="M0,880.8l46.5,0.1c5.6,0,11.3,0.6,16.7,0.9c1.7-0.3,3.2-0.9,4.8-0.9h458.1h58.5c1.1,0,2.2-0.2,3.2-0.3
		c0-0.3-0.1-0.7-0.1-1h-53.3c-0.2-0.6-0.3-0.8-0.2-0.9c4.5-5.8,4.2-13,5-19.7c1.3-10.9,2.1-21.8,3-32.7c0.2-2.1,0.7-3.6,3.2-4
		c1.6-0.3,3-1.4,4.6-2c1.2-0.4,2.4-0.5,4-0.9c3.6-2.5,7.6-4.8,12.5-4.8l34.5-0.1v92.1H-0.2C0,898.1,0,889.5,0,880.8L0,880.8z
		 M517.3,788.3c-50.8-0.6-100.5-5.6-149.9-16.6c-0.2-2.3-0.5-4.9-0.6-7.5l-2.1-44.3c-0.1-6.4,1-12.9,1.6-19.3l4.6-44.8l4.7-48.2
		c0.4-5.3-0.7-10.8-1.4-16.2l-12.6-87.6c-0.5-3.7-0.2-7.5-0.1-11.3l0.8-26.6l1.3-53.2c0-8.3-1.4-16.7-2.4-25l-8-63.5l-7-55.4
		c-0.7-6.1-0.6-12.2-0.9-18.3c0.3,0,0.5-0.1,0.8-0.1L517.3,788.3L517.3,788.3z M521.6,818c1.4-2.3,3.7-2.5,6.1-2.2l12.6,1.7l-0.9,3
		l-2.2,1l2.1,1.1c-0.2,0.1-0.3,0.3-0.5,0.4l-4.5,1.7c-3.6,1.5-7.3,2-11.2,1.2l-21.8-3.7h19.5c-0.2-1.1-0.4-1.9-0.6-3
		c-1.4-0.1-2.6-0.3-3.8-0.3c-10.6,0-21.1-0.2-31.7,0c-11.1,0.2-21.7-2.4-32.6-3.8c-6.5-0.8-13-1.9-19.4-2.9c-0.6-0.1-1.3,0-2,0.6
		c10.9,2.6,22.1,3.8,33,6h-3H104.9c-2.4,0-4.8-0.2-7.2,0c-1.4,0.1-2.8,0.7-4.1,1.1v0.9c0.7,0.3,1.4,0.9,2.1,1
		c2.8,0.2,5.6,0.4,8.4,0.4h87.6l277.8-0.1c14.6,0,29,1.2,43.4,3.7c4.2,0.7,8.4,1.7,12.6,1.8c3,0.1,6.1-0.8,9.1-1.5
		c1.9-0.4,3.7-1.3,6.1-2.2c0,1.9,0.1,3.3,0,4.7l-4.2,40c-0.1,1.3-0.4,2.7-0.8,4c-1.8,5.1-3.8,6.4-9.2,6.4
		c-155.7,0-311.4,0-467.1-0.1c-5.9,0-11.8-1.7-18-2.6l0.9-3.2h245.3h244.8v-1.4h-24.2v-0.9h27.3c0.2-1,0.3-1.6,0.4-2.5
		c-1.2-0.1-2.1-0.2-3.1-0.2c-6.6,0-13.3-0.2-19.9,0.1c-3,0.1-5.6-1.9-8.1-1.6c-2.6,0.3-5.1,1.6-8,1.6c-139.5-0.1-279.1,0-418.6,0
		H47.5h-3.6l3.3-7.7l44.6-1.2v-1.1H75.6H59l3.7-6.3c7.5-12,16.1-23,25.8-33.3c2.3-2.5,4.9-3.6,8.1-3.8l25.6-1.5
		c5.2-0.3,10.4-0.2,15.5-0.5l66.5-3.4c12.3-0.6,24.7-0.8,37.1-1c12.5-0.2,25.1,0,37.6,0h9.2c0.1,0.9,0.2,1.8,0.2,2.6
		c0.2,3.8,1.2,5.2,3.8,5.3c2.4,0,3.5-1.5,3.7-5.1c0-0.9,0.2-1.7,0.3-2.8c1.1-0.1,2-0.3,2.9-0.3l10.3-0.1l43.9-0.5L408,808l20.4,0.5
		c4.1,0.2,8.4,0.2,12.3,1.2c14.5,3.6,29.4,3.3,44.1,5c11.3,1.3,22.7,2.2,34.1,3.2C519.6,818,520.4,818,521.6,818L521.6,818z
		 M210.9,276.1l113.9,20.7l-0.6,12.1l-1.8,26.8l-2.8,41.1c-0.1,0.8-0.2,1.8-0.7,2.5c-4.2,5.2-4.1,11.2-3.4,17.4
		c0.2,1.9,0.5,3.9,1,6.7l-102.7-21.9c1.3-1.9,2.3-3.5,3.4-5c3.4-5.2,6.4-10.6,7.5-16.7c2-10.6-1.5-16.3-10.5-19.1
		c-4.8-1.5-9.8-2.2-14.7-3.2c-0.7-0.1-1.5,0.1-2.2,0.1c0,0.3-0.1,0.5-0.1,0.8c0.8,0.3,1.6,0.6,2.4,0.7c4.4,0.9,8.8,1.5,13.1,2.8
		c9.6,3,12.2,7.7,10.1,18.4c-1.5,7.5-5.5,13.9-10.3,19.8c-0.2,0.3-0.6,0.5-1.1,1l-24.1-5.2L210.9,276.1L210.9,276.1z M344.9,212.1
		l212.5,577.4l-36.2-1.2l-1.4-3.7L479,656.4l-61-191.5l-32.6-102.1l-37.6-118.1c-0.3-1,0-2.2-0.2-3.2l-1.1-4.5
		c-0.2-0.8-0.6-1.5-1.1-2.1c-4.2-5.7-1.9-12-1.7-18.1c0-1.5,0.3-3.1,0.5-4.6C344.5,212.2,344.7,212.2,344.9,212.1L344.9,212.1z
		 M243.4,165.5l41.6,7l1.1,2.8c2.9,9.9,9.7,16,19.2,19.2c5.6,1.9,11.4,2.8,17.2,4.2c0.6,0.1,1.2,0.3,1.8,0.4c3.6,32,4.8,63.9,0.4,96
		l-113.1-20.5C220.7,237.7,229.4,201,243.4,165.5L243.4,165.5z M181.1,401.8l130.1,23.4l-20.2,91l-99-19.6l2.1-3.4
		c4.8-7.1,8.8-14.5,10.1-23.1c1.3-8.7-1.3-15.7-7.4-18.7c-3.5-1.7-7.4-3-11.3-3.9c-4.6-1.1-9.3-1.5-14.2-2.2L181.1,401.8
		L181.1,401.8z M282.1,555.6l-20.7,77.1L170,615.4c3-4.8,6-9.2,8.6-13.9c3.8-6.9,6.7-14.2,6.7-22.2c0-10.8-3.7-16.7-14.1-19.9
		c-6.7-2.1-13.7-3-20.6-4.4c-0.5-0.1-1.1-0.1-1.7-0.2c-0.4-0.1-0.7-0.3-1.4-0.6l5-22.5L282.1,555.6L282.1,555.6z M133.1,620.8
		l2.2-10.4l125.2,23.8c-7.4,25.6-15.8,50.5-24.4,75.8l-81.7-16.3c3.4-4.6,6.7-8.6,9.6-12.8c5.7-8.3,10.2-17.1,11.4-27.4
		c1.4-11.8-2.8-19.5-13.6-24.6c-8.5-4.1-17.6-6.1-26.9-7.7C134.5,621.1,134,621,133.1,620.8L133.1,620.8z M290.7,517.9l-8.5,36.1
		l-129.4-24l8.3-37.8L290.7,517.9L290.7,517.9z M290.9,719.7l-52.8-9.4l24.5-75.6l39,7.4C301.2,668.4,298.6,694.1,290.9,719.7
		L290.9,719.7z M431.4,806.1c-1.5,0.3-3,0.8-4.5,0.8l-43.1-0.6c-1.7,0-3.3-1.1-5-1.7c-0.3-0.1-0.5-0.4-0.8-0.4
		c-2-0.3-3.8-0.7-5.1-2.6c-2.2-3.5-5.1-6.5-4.8-11.2c0.2-3.2-0.3-6.5-0.4-9.8c0-0.9,0.1-1.9,0.2-3c51.7,6.1,103.2,12.2,154.7,21.2
		l3.6,11.4C494.3,809.3,462.9,808.7,431.4,806.1L431.4,806.1z M363.2,737.8c-5.5-0.5-10.8-0.7-16-1.5l-46.8-8.1
		c-0.7-0.1-1.4-0.3-2.4-0.6c0.1-1.6,0.2-3.1,0.4-5l53.5,8v-19.7c0.1,0,0.1-0.1,0.2-0.1l6,25.1c0.4-0.1,0.7-0.1,1.1-0.2
		c0-0.8,0.2-1.7,0-2.5l-7.2-30.8c-0.4-1.7-0.6-3.5-0.7-5.2l-1.1-41.2l-1.8-44.5c0-1.1,0.1-2.2,0.2-3.4c1.5-0.3,2.8-0.5,4.2-0.7v-2.9
		h-4.5l-0.9-21.1h0.2l2.9,19.8c0.4,0,0.8-0.1,1.3-0.1c0-0.8,0.1-1.7,0-2.5l-5-36.1c-0.6-4.5-0.6-9.1-0.8-13.6l-1.5-37.8l-2.8-53.1
		c-0.9-14.1,0-28.1,1.2-42.1c0.1-1.2,0-2.3,0-3.5c-0.5,0-0.9-0.1-1.4-0.1l-1.1,13.2h-0.5c0.3-4.6-0.3-9.4,1-13.6
		c1.4-4.7,0.1-9.3,0.6-13.9c1.2-11,1.6-22.1,2.5-33.2c0.3,4,0.5,7.9,0.7,11.9l2.1,40.9l3.2,59.6l1.5,29.7l3.3,61.5l1.5,29.4
		l3.3,61.7l1.1,24.2l1.7,29.7l1.1,20.3C363.6,735.7,363.4,736.3,363.2,737.8L363.2,737.8z M315.6,404.7l-4.1,18.9l-130-23.4l5.4-23
		L315.6,404.7L315.6,404.7z M152,693l-33.2-7.3l13.8-63.4l12.2,2.5c7.6,1.8,14.9,4.1,21.4,8.6c4.7,3.3,7,7.8,7.4,13.5
		c0.5,8-1.4,15.4-4.9,22.4c-4,8.1-9.2,15.3-15.1,22.1C153.2,691.9,152.7,692.3,152,693L152,693z M283.9,555.8l23.5,4.3l-5.3,80.5
		l-38.9-7.5L283.9,555.8L283.9,555.8z M167.3,614.9l-31.6-6.1l11.4-52.6c3.1,0.3,5.9,0.3,8.5,1c6,1.4,12,2.8,17.7,4.9
		c8.1,2.9,10.7,9.7,10.2,17.7c-0.7,13.5-7.6,24.3-15.5,34.7C168,614.5,167.7,614.6,167.3,614.9L167.3,614.9z M343.5,673.7l-8.6,0.8
		c-3.3,0.6-6.6,1.2-9.7,2.4c-6.3,2.3-9.1,7.5-10.5,13.6c-2.2,9.4-0.4,18.4,2.6,27.3c0.6,1.9,1.3,3.7,2.2,6.3L299,721
		c-0.1-26.3,4.1-51.7,10.4-77.3l28.4,5.3L343.5,673.7L343.5,673.7z M343.3,675.5c4.3,8.3,9,45.9,6.7,53.1l-14.8-2.1
		c-3.9-0.5-7.8-1.1-11.6-1.8c-1-0.2-2.3-0.9-2.6-1.7c-3.9-9.9-7.2-20-5-31c2.3-11.4,7.9-14.3,17.7-15.9
		C336.9,675.7,340.2,675.7,343.3,675.5L343.3,675.5z M190.1,496.3l-28.6-5.6l9.6-43.4c7.9,0.6,15.5,1.4,22.7,4.5s9.3,7.1,9,15.5
		C202.3,478.3,196.4,487.2,190.1,496.3z M229,737.4c4.9-0.7,8.9,2.2,13.7,0c-4.2-3.1-8.8-1.8-12.9-3.8l2.5-7l63.1,12.9l-1.2,18.1
		c-4.3-0.3-8.3-0.7-12.2-0.7c-17.4,0-33.5-6.1-50.1-10.1l-6.4-1.6L229,737.4L229,737.4z M284.6,139c-2.1,10.4-2.2,20.8-0.1,31.8
		l-40.7-6.8c5.6-14.1,11.6-27.5,19.1-40.7L284.6,139z M345.9,803.4h-16.7l-21.3-0.4c-4.1-0.2-8.2-1-12.3-1.7
		c-0.8-0.2-2.2-1.4-2.1-2.1c0.3-6.4,0.9-12.7,1.4-19.1c0-0.1,0.2-0.3,0.5-0.6c0.7-0.1,1.7-0.2,2.6-0.2l28.5,0.5
		c1.2,0,2.8,0.7,3.5,1.6l15.8,21.1C345.8,802.5,345.7,802.8,345.9,803.4z M362,407.3h-13.8l-0.6-8.3l-2.1-41.9
		c-1.2-16.7,0.5-33.4,0.2-50v-23.7h0.7L362,407.3z M318,426.9l7.7,1.5l1.4,8.4l5.1,37c0.5,4.4-0.3,9-0.5,13.7
		c-1.9,0.5-3.3,0.9-4.8,1.2c-4.3,0.9-7.1,3.5-8.8,7.4c-2.9,6.7-2.3,13.6-0.8,20.5c0.3,1.5,0.7,3.1,1.3,5.2c-2.4-0.5-4.3-0.8-6.8-1.3
		L318,426.9L318,426.9z M176.4,780.9l-2,23.8l-47.5,3l-1.4,3.5l-3.3,0.4c-1.4-3.5-0.9-5.4,1.7-7.3l35.1-26l2-1.3
		c0.7,3.1,2.9,3.1,5.3,3.2C169.4,780.3,172.4,780.6,176.4,780.9L176.4,780.9z M312.9,425.9l3.4,0.6l-6.2,93.5l-17.3-3.5L312.9,425.9
		L312.9,425.9z M97.8,702l1.4-7.3l134,23.3l-1.8,6.2L97.8,702z M350.8,769.2L296,758l1.2-18.1l45.7,9.5l1.4,2.8l2.7,0.9L350.8,769.2
		L350.8,769.2z M286.4,138.1l4.4-15.8l28.1,1l3.2,42L286.4,138.1z M358.6,607.2l15.5-0.7l-10,99.8h-0.2L358.6,607.2z M322.3,177.7
		l-15.9-3l-17.4-3.2c-1-0.2-2.3-1-2.6-1.9c-2.3-5.8-2.1-23,0.2-29.1c0.7,0.4,1.4,0.8,2,1.3l30.6,23.5
		C322.4,167.9,323.8,173.5,322.3,177.7L322.3,177.7z M307.5,558.4l-23.5-4.2l8.4-36l17.6,3.6L307.5,558.4L307.5,558.4z M361.2,513.6
		l12.9,89.3l-15.7,1l2.6-90.2C361,513.7,361.1,513.7,361.2,513.6z M565.8,792.3l4.8,17.7c-5,1.1-9.6,2.5-14.2,2.9
		c-2.5,0.2-5.1-1.3-7.7-1.9c-1.5-0.3-3.2-0.4-5.1-0.6l-4.6-14.3h-1c-0.3,1-0.5,1.9-0.9,3.2l-13.1-2.1l-2.2-6.7
		C536.5,789.9,550.9,790.9,565.8,792.3L565.8,792.3z M321.4,562.6l-13.6,78.9l-4-0.7l5.4-80.4C313.3,561.2,316.9,561.8,321.4,562.6z
		 M339,268.6l2.1,42.3c0.6,12.4,1.9,24.9,1.6,37.3c-0.4,17.6-2,35.2-3,52.8c-0.1,1.2-0.1,2.5-0.6,3.7l-0.7-9.2l-2.1-41.1l-2.4-41.6
		c-0.2-5,1.1-10.1,1.7-15.2L339,268.6L339,268.6z M121.7,803.9v-32.3l38.2,3.3c0.1,0.2,0.1,0.4,0.2,0.6
		C160.1,775.5,121.7,803.9,121.7,803.9z M154,808.9l73.8-3l1.3-13.9l60.4,10.6v3.5h-5.9l-14.6,0.1l-4.3,0.2l-38.4,0.6
		c-4.9,0.1-9.7,0.6-14.6,0.8c-2.1,0.1-4.3-0.1-6.4,0l-48.8,2H154C153.9,809.5,154,809.2,154,808.9L154,808.9z M254,779.1h38.7
		l-1.3,21.4l-10.5-1.8l-13.7-2.5c-0.9-0.2-2.1-0.5-2.5-1.1C261.1,789.9,257.7,784.7,254,779.1L254,779.1z M323.1,563l7.8,1.5
		l-2.6,37.8c-0.6,0.6-0.7,0.8-0.8,0.8c-8.8,4.7-13,12.8-11.6,23c0.7,5,2.1,10,3.2,15c0.2,0.8,0.4,1.5,0.7,2.8l-10.4-1.8L323.1,563
		L323.1,563z M348.1,411.1l14-0.8l-2.3,79.7h-0.3L348.1,411.1L348.1,411.1z M323.2,179.7l1.2,17.4c-9.6-0.9-18.4-2.9-26.3-8
		c-5.5-3.6-9-8.7-10.6-16C299.7,174.9,311.3,177.2,323.2,179.7L323.2,179.7z M332.7,564.8l12.3,2.3l1.4,34.8h-16.3L332.7,564.8z
		 M337.3,647.3l-14.1-2.8c-0.6-0.1-1.2-0.8-1.5-1.4c-3.4-9.2-5.7-18.5-2.8-28.3c1.3-4.6,3.8-8.2,8.6-9.6L337.3,647.3z M330.1,608.8
		l16.5-1l1.5,41.3l-8.9-1.5L330.1,608.8z M326.7,525l-5.3,35.9l-12.1-2.1l2.4-36.8L326.7,525L326.7,525z M349.7,434l9.5,66
		c0.7,5,0.2,10.2,0.1,15.3l-0.9,31.4l-1.1,35l-7.7-147.6C349.5,434,349.6,434,349.7,434z M363.7,739.1l1.7,32.6
		c-4.2-0.7-7.9-1.3-11.6-2.2c-0.6-0.1-1.3-1.2-1.5-1.9l-3.8-16.1c-0.3-1.3,0-2.6,0-3.9c1.1-0.4,1.8-0.6,2.7-0.9
		c0.6-2.5,1.1-5.1,1.7-7.7C356.4,739.1,359.7,739.1,363.7,739.1L363.7,739.1z M501.4,871.4H43.6v-0.3h457.8L501.4,871.4L501.4,871.4
		z M289.5,727.9l-1.8,7l-54.8-9.8l2.1-6.7L289.5,727.9z M351.1,738.7l-1.3,7l-52.3-9.1l0.4-7.2L351.1,738.7L351.1,738.7z M229,789.9
		l0.9-11.2h20.7l11,16.8L229,789.9L229,789.9z M221,778.5h6.2l-1.7,24.6h-17.9c-1.1-8.2-3.3-16.6,0.2-25.1h5c0.3,1.6,1,3.4,1,5.1
		c0.2,5.2,0.1,10.3,0.2,15.5c0,1.7,0.5,3.4,2.6,3.4s2.6-1.7,2.7-3.3l1.5-17.9C220.8,780.2,220.9,779.5,221,778.5z M367.3,802.4
		h-13.9l-16.8-22.6h15l16,21.8C367.5,801.8,367.4,802.1,367.3,802.4L367.3,802.4z M331.1,490l-4.2,33.2c-2.1-0.3-4.1-0.6-6.2-1
		c-2.9-9.2-5.1-18.3-0.1-27.4C322.5,491.4,326.6,489.5,331.1,490L331.1,490z M335.3,526.8l4.5,0.9l5.3,37.7l-12.3-2.3L335.3,526.8
		L335.3,526.8z M326.4,378h9.4l1.6,29.8l-12.2-2.6L326.4,378L326.4,378z M335.7,375.9h-8.9c-0.8-17.9,2.5-35.2,5.8-52.4L335.7,375.9
		z M235.7,716.9l1.7-5.1l53.3,9.5l-1,5.1L235.7,716.9z M323.1,561.4l5.3-36l5.2,1.1l-2.5,36.2L323.1,561.4z M221.9,754.3l-2.6-8.8
		l2.4-10.1l4.8,1.9l-2.6,9l34.1,8.9v0.3L221.9,754.3L221.9,754.3z M179.8,797.1h25.3l0.7,7.6l-26.5,1.1L179.8,797.1L179.8,797.1z
		 M327.6,428.8l9.8,1.9l-3.7,37h-0.6L327.6,428.8L327.6,428.8z M284.9,137.1l-20.5-15h24.8L284.9,137.1z M293,775h-63.3v-2.7
		c0.6-0.1,1.2-0.3,1.7-0.3l39.3,0.8l18.9,0.2C290.9,773.1,292.7,772.8,293,775L293,775z M337.7,429l-10.3-1.9l-2.2-14.8l12.4-0.7
		L337.7,429z M103.5,820.6h373.1v0.1C352.2,820.7,227.9,820.7,103.5,820.6z M517.9,790.4l1.9,5.9l-58.3-8.7v-0.1L517.9,790.4
		L517.9,790.4z M341.1,245.5c4.8,24.8,2.1,49.8,2.5,74.7C343,295.3,339.3,270.5,341.1,245.5L341.1,245.5z M328.2,298.2
		c-2.1,25.1-0.1,50.4-6.6,75.2l5-75.3C327.1,298.1,327.6,298.1,328.2,298.2L328.2,298.2z M339.6,649.4l8.6,1.5v22.7h-2.9
		L339.6,649.4z M524.4,798.9l14.4,2.2l2.7,8.9H528L524.4,798.9L524.4,798.9z M334.4,489.8c2.4,11.6-0.5,23-0.6,35
		c-2-0.5-3.4-0.8-5.2-1.2l4.4-33.9C333.5,489.8,333.9,489.8,334.4,489.8L334.4,489.8z"/>
	<path class="st0" d="M293.3,768.6l-45-1.5l0.2-2.6c4.6,0,9-0.2,13.3,0l28.9,1.8c0.9,0.1,1.9,0.6,2.8,0.8
		C293.4,767.6,293.3,768.1,293.3,768.6L293.3,768.6z M341.5,526.4c-1.2-12.2-5-24-3.5-36.9c1.4,0.3,2.3,0.4,3.6,0.7
		c0.4,12.2,1.7,24.1,1.5,36.1C342.5,526.3,342,526.4,341.5,526.4z M163.8,771.7l-69.2-6v-0.6l14.3,0.7l18.6,1.3l29.7,1.5
		c0.6,0,1.3,0.2,1.8,0.5L163.8,771.7L163.8,771.7z M319.4,405.7l3.4,0.7l2.6,20.1l-7.3-1.4L319.4,405.7L319.4,405.7z M340.8,775.6
		H295c0.3-2.6,1.8-2.2,3.1-2.2l27.6,0.6c4.1,0.1,8.1,0.2,12.2,0.5c1.1,0.1,2.1,0.6,3.2,0.9C340.9,775.4,340.8,775.5,340.8,775.6
		L340.8,775.6z M124.8,764.7c0.6-0.3,1.2-0.8,1.7-0.8h29.6l1.2,3.2l-32.4-1.7C124.9,765.1,124.8,764.9,124.8,764.7z M339.6,437.3
		l-3.2,49.4h-0.7c-0.4-4-1.3-8-1-11.9c1-12,2.4-24,3.7-36c0.1-0.6,0.2-1.1,0.4-1.7C339,437.2,339.3,437.3,339.6,437.3L339.6,437.3z
		 M323.4,404.7l-3.2-0.6c-1.7-5.1,1.3-24.6,4.3-25.8L323.4,404.7L323.4,404.7z M332,779.4c1.1,0.5,2.7,0.7,3.4,1.6l15.4,20.8
		c0.3,0.4,0.5,1,0.7,1.4c-0.1,0.3-0.2,0.5-0.4,0.8c-1-0.4-2.4-0.5-3-1.2l-16.5-22.1c-0.1-0.1-0.1-0.3-0.1-0.5
		C331.7,780,331.9,779.7,332,779.4z M158.8,758.8h7.6l0.5,10.5c-4.1,1-5.4,0.3-6.5-3l-1.9-6.4C158.5,759.7,158.7,759.4,158.8,758.8
		L158.8,758.8z M330.8,298.9c2.8,12.4-0.8,24.4-2.6,36.6l1.6-36.6H330.8z M216.3,732l-29.9-4.8C188.6,724.7,213.6,728.8,216.3,732z
		 M248.2,769.1l44.7,1.5v1l-44.7-1.1C248.1,770.1,248.2,769.6,248.2,769.1z M365.5,791.3l-8.9-12.3l8.7-0.6l0.7,12.7
		C365.9,791.1,365.7,791.2,365.5,791.3L365.5,791.3z M228.4,763.7l-0.5,5.9h-7.8v-5.9H228.4z M301.9,668.5l1.7-25.6
		c1.2,0.1,2.3,0.2,3.5,0.4l-4.9,25.2L301.9,668.5L301.9,668.5z M194.1,758.2l-0.5,4.2h-12.3C184.8,758.1,189.2,756.6,194.1,758.2z
		 M341.5,488.3l-3.4-0.6l1.8-26.7h0.3L341.5,488.3L341.5,488.3z M339.4,772.8l-43.8-1.1v-0.8l2.6-0.2l22.7,1.2c1,0,2.1-0.1,3.1-0.4
		C329.3,769.8,334.3,771.8,339.4,772.8L339.4,772.8z M298.3,697.4l-1.5,22.9l-3.5-0.5l4.8-22.5C298.1,697.3,298.2,697.4,298.3,697.4
		z M199.6,766h5.2l0.6,7.9l-5.8-0.3V766z M244.2,761.2l48.3,2.7v0.7l-48.3-2.5C244.1,761.8,244.2,761.5,244.2,761.2L244.2,761.2z
		 M262.8,759.2l-41.6-1.5v-0.8l41.6,1.3V759.2z M345,747.9c-12.8-2.1-25.5-5.3-38.2-8.1l38.4,6.7C345.2,747,345.1,747.4,345,747.9
		L345,747.9z M294.9,766.9c9.3,0,18,1.2,27.2,2.2C318.9,770.3,296.5,768.8,294.9,766.9z M526.5,813.4l-29.3-1.7c0-0.3,0-0.7,0.1-1
		l29.3,1.3C526.5,812.5,526.5,812.9,526.5,813.4L526.5,813.4z M218.8,785.8l-1.5,14.4h-1.4l-1-15.1L218.8,785.8L218.8,785.8z
		 M337.1,508.1l2.5,17.6l-4.1-0.7l1.1-17C336.8,508.1,336.9,508.1,337.1,508.1L337.1,508.1z M404.2,780.3c-12.3-0.6-35.6-4.4-37-6.4
		L404.2,780.3z M295.7,736.1l-6.1-1l1.6-6.7l4.5,0.6V736.1L295.7,736.1z M235.9,765.6l-3.2-0.7v-0.2l13.7,0.6l-0.7,3.2h-8.4
		C236.7,767.5,236.4,766.7,235.9,765.6L235.9,765.6z M185.6,794l0.9-6.4h5.2v5.7L185.6,794L185.6,794z M335.2,805.9h-38.3
		c-0.7,0-1.5-0.6-1.9-1.4L335.2,805.9L335.2,805.9z M175.5,749.5l-3.2-0.5c-0.7-2.3-2.1-4.6,0.3-6.4c0.7-0.6,2.5-0.4,3.4,0.1
		C177.8,743.7,177.5,746.1,175.5,749.5L175.5,749.5z M217.9,743l-3.2-0.7c-0.5-2.2-2.3-4.4,0.1-6.3c0.7-0.6,2.5-0.5,3.4,0
		C220,737,219.9,739.3,217.9,743z M316.4,424.6l-3.1-0.6l3.8-18c0.2,0,0.4,0,0.5,0.1L316.4,424.6L316.4,424.6z M118.2,713.8
		l-0.6-6.5c0.4-0.1,0.7-0.2,1.1-0.2c0.2,0.7,0.4,1.4,0.5,2.2c0.2,1.3,0.2,2.7,0.6,3.9c0.1,0.2,2.2,0.3,2.3,0
		c0.4-1.3,0.6-2.7,0.8-4.1v-0.7h0.7c-0.1,3.2-0.3,6.3-0.5,10c-0.3-1.7-0.5-2.9-0.8-4.1h-1.1c-0.8,6.2-0.1,12.6-0.5,18.8h-0.8v-15.5
		c0-1.3-0.7-2.6-1-3.9C118.7,713.9,118.4,713.8,118.2,713.8z M203.8,793.4l-3.4-0.2v-8.5l3.4-0.2V793.4z M329.3,265.6l-1.2,30.3
		c-0.5,0-0.9,0-1.4-0.1l2-30.2L329.3,265.6L329.3,265.6z M213.2,769.7c-1.8-2.1-2.1-3.9-0.5-5c1-0.7,3.1-0.8,4.1-0.2
		c0.8,0.5,1.4,3.4,1,3.6C216.4,769,214.5,769.3,213.2,769.7L213.2,769.7z M345.8,675.8h3.2v13.6L345.8,675.8z M215.3,754.4h-2.1
		c-1.5-4.2-1.2-5.4,1.3-6.6C217.3,748.9,217.5,750.5,215.3,754.4z M345.6,604.4l-15.8,0.9C332.2,603.2,340.8,602.6,345.6,604.4z
		 M227.7,771.7c-0.3,1.1-0.4,1.9-0.6,2.8h-6.5l-0.3-2.8H227.7L227.7,771.7z M292.7,721.7l3.6,0.4v5.1l-4.7-0.5L292.7,721.7z
		 M312.6,763.7l-16.7-1.8c0.1-0.5,0.1-1,0.2-1.5l16.6,2.7C312.7,763.3,312.6,763.5,312.6,763.7z M316.5,395.3l1.2-12.1
		c0.5,0.1,1,0.1,1.6,0.2l-1.4,12.1C317.4,395.4,316.9,395.3,316.5,395.3L316.5,395.3z M342.8,773.7l11.9,1.2c0,0.3-0.1,0.6-0.1,0.9
		c-4-1-8.3,2.2-12-1.2C342.6,774.2,342.7,774,342.8,773.7z M150.2,810l-20.2,1.2v-0.8l20.2-1.2C150.1,809.6,150.2,809.8,150.2,810z
		 M172.3,765l-2.3-6.4l4.3-0.5C173,760.5,175.3,762.9,172.3,765z M191.7,778.9v5.2h-3.9l1.5-5.1L191.7,778.9L191.7,778.9z
		 M541.8,812.7H529v-0.6h12.9C541.9,812.4,541.9,812.5,541.8,812.7L541.8,812.7z M197.9,787.4v6.5l-2.4-0.2v-6L197.9,787.4z
		 M339,223l1.4,20.8c-0.3,0-0.6,0-0.9,0.1l-1.1-20.9C338.5,222.9,338.8,222.9,339,223L339,223z M342.7,241.6l3,1.9l1.1,3.8l-3.1,1
		L342.7,241.6z M343.2,528.5l0.9,13.7h-0.4l-1.9-13.6C342.3,528.6,342.7,528.6,343.2,528.5L343.2,528.5z M293.6,761.7l-12.7-2.7
		c0-0.1,0-0.3,0.1-0.4l12.9,1.6L293.6,761.7L293.6,761.7z M218.7,774.5h-4.8l-0.3-2.1l4.4-1.1C218.3,772.4,218.5,773.3,218.7,774.5
		L218.7,774.5z M119.8,772.8v31.5h-0.2v-31.6C119.7,772.7,119.7,772.7,119.8,772.8z M209.5,763l0.5,6.4c-3-1.4-1.9-4.3-4.1-6.3
		L209.5,763L209.5,763z M267.8,777.1h-30v-0.2h30.1C267.9,776.9,267.8,777,267.8,777.1z M488.8,820.6h28.6v0.1
		C507.9,820.7,498.3,820.7,488.8,820.6L488.8,820.6z M280.1,760.6l-12.9-0.9C271.6,757.3,275.8,759.8,280.1,760.6z M204.1,781.8
		h-3.7l-0.2-2.7h3.9V781.8z M205.7,758l1.6-7C209.2,753.9,208.2,757.9,205.7,758z M196.9,779l1.4,5.1h-3l0.4-5.2
		C196.1,778.9,196.5,778.9,196.9,779L196.9,779z M211.8,774.1h-3.3l-0.6-3.4l3.3,0.5L211.8,774.1z M233.7,769.9l-3.5,0.5l0.3-3.6
		l3.5,0.6L233.7,769.9z M319.4,777.8h22.9v0.2h-22.9V777.8z M182.8,726.5l-8.1-1.1h8.2C182.9,725.7,182.9,726.1,182.8,726.5
		L182.8,726.5z M331.4,408.2h-6.3c0-0.3,0.1-0.7,0.1-1C327.6,406.8,329.9,408,331.4,408.2L331.4,408.2z M323.2,376.1l1.1-6.8v6.9
		C324,376.2,323.6,376.2,323.2,376.1z M312,777.6h-16.1v-0.2h16.2C312,777.5,312,777.5,312,777.6z M276.2,777.3H292v0.2h-15.8V777.3
		z M330.1,296.4v-8.3h0.4l0.5,8.3H330.1z M363,805.7h13.1v0.1L363,805.7L363,805.7z M218.3,784.3l-2.7-2.2l2.7-1.6V784.3z
		 M180.3,788l1.1,5.5C179.8,793.7,179.3,792,180.3,788z M175.7,754.1l-4.5-1.8l1.5-1.6L175.7,754.1L175.7,754.1z M113.6,811.9l4-2.7
		l-0.5,2.7H113.6z M504.6,868l1.6,1.5l-0.3,0.8c-0.7,0-1.5,0.1-2-0.2c-0.3-0.2-0.1-1.2-0.1-1.9C504.1,868.1,504.3,868,504.6,868
		L504.6,868z M177.9,781.9v11.7h-0.2v-11.8C177.8,781.8,177.9,781.9,177.9,781.9z M213.3,745.9l1.7-1.8l3.1,2.9L213.3,745.9
		L213.3,745.9z M174,755.9l-3.9,0.4C171.2,754,171.9,753.9,174,755.9z M551.4,813h-6.8v-0.7l6.8,0.5V813z M191.3,771.3l-4.5-0.6
		c0-0.2,0-0.4,0.1-0.6l4.6,0.2C191.4,770.6,191.4,770.9,191.3,771.3L191.3,771.3z M217.7,754.2l1-3.7c0.2,0,0.5,0.1,0.7,0.1
		l-0.4,3.9C218.5,754.3,218.1,754.3,217.7,754.2z M168.8,764.9l-0.4-4.2c0.2,0,0.3-0.1,0.5-0.1l1.1,4.1
		C169.6,764.7,169.2,764.8,168.8,764.9L168.8,764.9z M548.2,815l3.9-0.4c0,0.2,0.1,0.4,0.1,0.5l-3.8,1
		C548.3,815.8,548.2,815.4,548.2,815z M121.9,763.5h-4.5v-0.4h4.4C121.9,763.3,121.9,763.4,121.9,763.5z M185.7,782.7l0.5-3.7
		c0.3,0.1,0.7,0.1,1,0.2l-0.9,3.7C186.1,782.8,185.9,782.7,185.7,782.7z M215,778.5h3.7v0.6l-3.6,0.4
		C215.1,779.2,215.1,778.9,215,778.5L215,778.5z M192.5,767.4h-8.9v-0.1L192.5,767.4z M119.8,742l0.5,5.1h-0.5V742z M169.7,775.7
		l3.6,0.3c0,0.3,0,0.5-0.1,0.8l-3.6-0.4C169.7,776.2,169.7,775.9,169.7,775.7L169.7,775.7z M175.6,762.6l0.2-3.9h0.8l-0.4,3.8
		C176,762.6,175.8,762.6,175.6,762.6L175.6,762.6z M180.9,758.6l2.2-1.2c0.1,0.2,0.3,0.5,0.4,0.7l-2.1,1.3
		C181.3,759.2,181.1,758.9,180.9,758.6L180.9,758.6z M164,777.6l-1.2-1.6c0.2-0.2,0.5-0.4,0.7-0.6l1.3,1.5
		C164.6,777.1,164.3,777.4,164,777.6L164,777.6z M191.5,773.1h3.4v0.4h-3.4V773.1z M145.2,760.3H139v-0.1h6.4
		C145.4,760.2,145.3,760.2,145.2,760.3L145.2,760.3z M203.4,752.3l-1,3.5c-0.2,0-0.3-0.1-0.5-0.1l0.8-3.6
		C202.9,752.2,203.1,752.2,203.4,752.3L203.4,752.3z M301.9,765.6l-5.2-0.6v-0.3l5.2,0.5C302,765.3,301.9,765.5,301.9,765.6
		L301.9,765.6z M181.7,782.4l-0.8,1.7c-0.3-0.1-0.5-0.3-0.8-0.4c0.3-0.6,0.6-1.1,0.8-1.7C181.2,782.2,181.4,782.3,181.7,782.4z
		 M153.6,761.7h-5.5v-0.1L153.6,761.7L153.6,761.7z"/>
</g>
<path d="M504,833.2l-3.2,0.2h-63.6c-3.4,0-6.6,0.4-9.9,1.6c-5.2,1.9-10.8,3-16.3,3.5c-9.2,0.8-18.6,0.7-27.2-2.6
	c-6.9-2.7-13.8-2.4-20.8-2.4H219.3c-3.5,0-6.7,0.3-10.2,1.6c-5.3,1.9-11,3-16.6,3.5c-9.4,0.9-19.1,0.7-27.9-2.8
	c-6.5-2.5-12.9-2.3-19.4-2.3h-40.1c-0.7,0-1.5-0.1-2.2-0.2c0-0.3,0-0.6-0.1-1c1-0.2,2.1-0.5,3.1-0.5l49.2-0.1h3.3
	c4-3.4,8.7-3.8,13.2-4.7c12.1-2.4,24.2-1.5,36,2c1.3,0.4,2.5,1.3,3.8,1.8c0.9,0.4,1.9,0.8,2.9,0.8h161.4c0.6,0,1.3-0.1,1.8-0.1
	c3.8-3.3,8.6-3.7,13.1-4.5c12.3-2.4,24.7-2.1,36.4,2.5c5.8,2.3,11.2,2.1,16.9,2.1l55.9,0.1c1.4,0,2.8,0.2,4.3,0.4
	C504,832.5,504,832.9,504,833.2L504,833.2z"/>
<path class="st0" d="M161.4,832.5c6.8-6,42.9-6,48.2-0.1C204.5,838.3,168.5,838.4,161.4,832.5z M428.2,832.4
	c-6.3,5.9-40.8,6-47.8,0.2C385,826.5,420.7,826.3,428.2,832.4z"/>
</svg>
